<svg width="22" height="20" viewBox="0 0 22 23" fill="none" xmlns="http://www.w3.org/2000/svg">
<path d="M11.7471 0C5.30716 0 0.0704409 5.19545 0 11.6191V11.625V11.6309C0.0705081 17.9165 5.19569 23 11.4971 23C15.5303 23 19.0846 20.9206 21.1367 17.7734C21.2092 17.6623 21.2346 17.527 21.2074 17.3971C21.1801 17.2673 21.1023 17.1536 20.9912 17.0811C20.8801 17.0085 20.7447 16.9831 20.6149 17.0104C20.485 17.0377 20.3713 17.1155 20.2988 17.2266C18.4249 20.1004 15.1868 22 11.4971 22C5.73448 22 1.06868 17.3715 1.00098 11.625C1.06875 5.7405 5.84601 1 11.7471 1C16.7368 1 20.7831 4.93867 20.9785 9.87988C20.8826 12.08 19.9821 13.9547 18.8086 15.2959C17.5673 16.7145 16.0137 17.5 14.9971 17.5C14.4418 17.5 14.0048 17.0618 14 16.5078C14.0045 16.4565 14.102 15.3941 14.5732 14.1572C14.5746 14.1527 14.5759 14.1481 14.5771 14.1436L17.9609 5.68555C17.993 5.60827 18.0052 5.52418 17.9963 5.44098C17.9874 5.35778 17.9579 5.27814 17.9102 5.20934C17.8626 5.14054 17.7985 5.08479 17.7238 5.04719C17.649 5.0096 17.566 4.99136 17.4824 4.99414C17.3844 4.99758 17.2895 5.02978 17.2096 5.08674C17.1298 5.14369 17.0684 5.22288 17.0332 5.31445L16.3613 6.99414C16.057 6.314 15.6357 5.77501 15.1094 5.38086C14.2589 4.74394 13.1824 4.5 11.9971 4.5C10.5957 4.5 8.79272 5.3741 7.25879 6.94824C5.72486 8.52238 4.49707 10.8393 4.49707 13.75C4.49707 16.3673 6.6298 18.5 9.24707 18.5C10.7724 18.5 11.889 17.8595 12.667 17.0811C12.792 16.9559 12.9073 16.8273 13.0176 16.6973C13.119 17.7032 13.9659 18.5 14.9971 18.5C16.4804 18.5 18.1768 17.5355 19.5605 15.9541C20.7708 14.571 21.7282 12.6848 21.9492 10.4717C21.9819 10.4024 21.9983 10.3266 21.9971 10.25C21.9971 10.0851 21.9921 9.92086 21.9844 9.75781C21.9867 9.67109 21.9971 9.5876 21.9971 9.5C21.9977 9.42547 21.9817 9.35173 21.9502 9.28418C21.4622 4.0811 17.0764 0 11.7471 0ZM11.9971 5.5C13.0457 5.5 13.8859 5.71444 14.5098 6.18164C15.1102 6.63133 15.5503 7.33502 15.7754 8.45996L13.6465 13.7812C13.6437 13.7877 13.6411 13.7942 13.6387 13.8008L13.459 14.249C13.4499 14.2616 13.4414 14.2747 13.4336 14.2881C13.0408 14.9162 12.6041 15.7295 11.96 16.374C11.3158 17.0186 10.5033 17.5 9.24707 17.5C7.17034 17.5 5.49707 15.8267 5.49707 13.75C5.49707 11.1192 6.59529 9.06099 7.97461 7.64551C9.35393 6.23002 11.0514 5.5 11.9971 5.5Z" fill="#38474E"/>
</svg>
