<svg width="250" height="28" viewBox="0 0 250 28" fill="none" xmlns="http://www.w3.org/2000/svg">
<rect width="250" height="28" rx="3" fill="url(#paint0_linear)"/>
<path d="M77 21H174" stroke="white" stroke-linecap="round" stroke-linejoin="bevel" stroke-dasharray="2 4"/>
<path d="M79.7236 18.072C79.0996 18.072 78.4996 17.972 77.9236 17.772C77.3556 17.572 76.9156 17.308 76.6036 16.98L76.9516 16.296C77.2556 16.6 77.6596 16.848 78.1636 17.04C78.6676 17.224 79.1876 17.316 79.7236 17.316C80.4756 17.316 81.0396 17.18 81.4156 16.908C81.7916 16.628 81.9796 16.268 81.9796 15.828C81.9796 15.492 81.8756 15.224 81.6676 15.024C81.4676 14.824 81.2196 14.672 80.9236 14.568C80.6276 14.456 80.2156 14.336 79.6876 14.208C79.0556 14.048 78.5516 13.896 78.1756 13.752C77.7996 13.6 77.4756 13.372 77.2036 13.068C76.9396 12.764 76.8076 12.352 76.8076 11.832C76.8076 11.408 76.9196 11.024 77.1436 10.68C77.3676 10.328 77.7116 10.048 78.1756 9.84C78.6396 9.632 79.2156 9.528 79.9036 9.528C80.3836 9.528 80.8516 9.596 81.3076 9.732C81.7716 9.86 82.1716 10.04 82.5076 10.272L82.2076 10.98C81.8556 10.748 81.4796 10.576 81.0796 10.464C80.6796 10.344 80.2876 10.284 79.9036 10.284C79.1676 10.284 78.6116 10.428 78.2356 10.716C77.8676 10.996 77.6836 11.36 77.6836 11.808C77.6836 12.144 77.7836 12.416 77.9836 12.624C78.1916 12.824 78.4476 12.98 78.7516 13.092C79.0636 13.196 79.4796 13.312 79.9996 13.44C80.6156 13.592 81.1116 13.744 81.4876 13.896C81.8716 14.04 82.1956 14.264 82.4596 14.568C82.7236 14.864 82.8556 15.268 82.8556 15.78C82.8556 16.204 82.7396 16.592 82.5076 16.944C82.2836 17.288 81.9356 17.564 81.4636 17.772C80.9916 17.972 80.4116 18.072 79.7236 18.072ZM87.6117 11.64C88.4037 11.64 89.0317 11.872 89.4957 12.336C89.9677 12.792 90.2037 13.46 90.2037 14.34V18H89.3517V14.424C89.3517 13.768 89.1877 13.268 88.8597 12.924C88.5317 12.58 88.0637 12.408 87.4557 12.408C86.7757 12.408 86.2357 12.612 85.8357 13.02C85.4437 13.42 85.2477 13.976 85.2477 14.688V18H84.3957V9.096H85.2477V12.792C85.4797 12.424 85.7997 12.14 86.2077 11.94C86.6157 11.74 87.0837 11.64 87.6117 11.64ZM94.5102 11.64C95.3342 11.64 95.9662 11.848 96.4062 12.264C96.8462 12.672 97.0662 13.28 97.0662 14.088V18H96.2502V17.016C96.0582 17.344 95.7742 17.6 95.3982 17.784C95.0302 17.968 94.5902 18.06 94.0782 18.06C93.3742 18.06 92.8142 17.892 92.3982 17.556C91.9822 17.22 91.7742 16.776 91.7742 16.224C91.7742 15.688 91.9662 15.256 92.3502 14.928C92.7422 14.6 93.3622 14.436 94.2102 14.436H96.2142V14.052C96.2142 13.508 96.0622 13.096 95.7582 12.816C95.4542 12.528 95.0102 12.384 94.4262 12.384C94.0262 12.384 93.6422 12.452 93.2742 12.588C92.9062 12.716 92.5902 12.896 92.3262 13.128L91.9422 12.492C92.2622 12.22 92.6462 12.012 93.0942 11.868C93.5422 11.716 94.0142 11.64 94.5102 11.64ZM94.2102 17.388C94.6902 17.388 95.1022 17.28 95.4462 17.064C95.7902 16.84 96.0462 16.52 96.2142 16.104V15.072H94.2342C93.1542 15.072 92.6142 15.448 92.6142 16.2C92.6142 16.568 92.7542 16.86 93.0342 17.076C93.3142 17.284 93.7062 17.388 94.2102 17.388ZM99.9816 12.924C100.182 12.5 100.478 12.18 100.87 11.964C101.27 11.748 101.762 11.64 102.346 11.64V12.468L102.142 12.456C101.478 12.456 100.958 12.66 100.582 13.068C100.206 13.476 100.018 14.048 100.018 14.784V18H99.1656V11.688H99.9816V12.924ZM109.111 15.108H103.831C103.879 15.764 104.131 16.296 104.587 16.704C105.043 17.104 105.619 17.304 106.315 17.304C106.707 17.304 107.067 17.236 107.395 17.1C107.723 16.956 108.007 16.748 108.247 16.476L108.727 17.028C108.447 17.364 108.095 17.62 107.671 17.796C107.255 17.972 106.795 18.06 106.291 18.06C105.643 18.06 105.067 17.924 104.563 17.652C104.067 17.372 103.679 16.988 103.399 16.5C103.119 16.012 102.979 15.46 102.979 14.844C102.979 14.228 103.111 13.676 103.375 13.188C103.647 12.7 104.015 12.32 104.479 12.048C104.951 11.776 105.479 11.64 106.063 11.64C106.647 11.64 107.171 11.776 107.635 12.048C108.099 12.32 108.463 12.7 108.727 13.188C108.991 13.668 109.123 14.22 109.123 14.844L109.111 15.108ZM106.063 12.372C105.455 12.372 104.943 12.568 104.527 12.96C104.119 13.344 103.887 13.848 103.831 14.472H108.307C108.251 13.848 108.015 13.344 107.599 12.96C107.191 12.568 106.679 12.372 106.063 12.372ZM115.381 10.368H112.429V9.6H119.221V10.368H116.269V18H115.381V10.368ZM123.46 11.64C124.252 11.64 124.88 11.872 125.344 12.336C125.816 12.792 126.052 13.46 126.052 14.34V18H125.2V14.424C125.2 13.768 125.036 13.268 124.708 12.924C124.38 12.58 123.912 12.408 123.304 12.408C122.624 12.408 122.084 12.612 121.684 13.02C121.292 13.42 121.096 13.976 121.096 14.688V18H120.244V9.096H121.096V12.792C121.328 12.424 121.648 12.14 122.056 11.94C122.464 11.74 122.932 11.64 123.46 11.64ZM128.151 11.688H129.003V18H128.151V11.688ZM128.583 10.308C128.407 10.308 128.259 10.248 128.139 10.128C128.019 10.008 127.959 9.864 127.959 9.696C127.959 9.536 128.019 9.396 128.139 9.276C128.259 9.156 128.407 9.096 128.583 9.096C128.759 9.096 128.907 9.156 129.027 9.276C129.147 9.388 129.207 9.524 129.207 9.684C129.207 9.86 129.147 10.008 129.027 10.128C128.907 10.248 128.759 10.308 128.583 10.308ZM132.851 18.06C132.339 18.06 131.847 17.988 131.375 17.844C130.911 17.692 130.547 17.504 130.283 17.28L130.667 16.608C130.931 16.816 131.263 16.988 131.663 17.124C132.063 17.252 132.479 17.316 132.911 17.316C133.487 17.316 133.911 17.228 134.183 17.052C134.463 16.868 134.603 16.612 134.603 16.284C134.603 16.052 134.527 15.872 134.375 15.744C134.223 15.608 134.031 15.508 133.799 15.444C133.567 15.372 133.259 15.304 132.875 15.24C132.363 15.144 131.951 15.048 131.639 14.952C131.327 14.848 131.059 14.676 130.835 14.436C130.619 14.196 130.511 13.864 130.511 13.44C130.511 12.912 130.731 12.48 131.171 12.144C131.611 11.808 132.223 11.64 133.007 11.64C133.415 11.64 133.823 11.696 134.231 11.808C134.639 11.912 134.975 12.052 135.239 12.228L134.867 12.912C134.347 12.552 133.727 12.372 133.007 12.372C132.463 12.372 132.051 12.468 131.771 12.66C131.499 12.852 131.363 13.104 131.363 13.416C131.363 13.656 131.439 13.848 131.591 13.992C131.751 14.136 131.947 14.244 132.179 14.316C132.411 14.38 132.731 14.448 133.139 14.52C133.643 14.616 134.047 14.712 134.351 14.808C134.655 14.904 134.915 15.068 135.131 15.3C135.347 15.532 135.455 15.852 135.455 16.26C135.455 16.812 135.223 17.252 134.759 17.58C134.303 17.9 133.667 18.06 132.851 18.06ZM142.237 18.072C141.613 18.072 141.013 17.972 140.437 17.772C139.869 17.572 139.429 17.308 139.117 16.98L139.465 16.296C139.769 16.6 140.173 16.848 140.677 17.04C141.181 17.224 141.701 17.316 142.237 17.316C142.989 17.316 143.553 17.18 143.929 16.908C144.305 16.628 144.493 16.268 144.493 15.828C144.493 15.492 144.389 15.224 144.181 15.024C143.981 14.824 143.733 14.672 143.437 14.568C143.141 14.456 142.729 14.336 142.201 14.208C141.569 14.048 141.065 13.896 140.689 13.752C140.313 13.6 139.989 13.372 139.717 13.068C139.453 12.764 139.321 12.352 139.321 11.832C139.321 11.408 139.433 11.024 139.657 10.68C139.881 10.328 140.225 10.048 140.689 9.84C141.153 9.632 141.729 9.528 142.417 9.528C142.897 9.528 143.365 9.596 143.821 9.732C144.285 9.86 144.685 10.04 145.021 10.272L144.721 10.98C144.369 10.748 143.993 10.576 143.593 10.464C143.193 10.344 142.801 10.284 142.417 10.284C141.681 10.284 141.125 10.428 140.749 10.716C140.381 10.996 140.197 11.36 140.197 11.808C140.197 12.144 140.297 12.416 140.497 12.624C140.705 12.824 140.961 12.98 141.265 13.092C141.577 13.196 141.993 13.312 142.513 13.44C143.129 13.592 143.625 13.744 144.001 13.896C144.385 14.04 144.709 14.264 144.973 14.568C145.237 14.864 145.369 15.268 145.369 15.78C145.369 16.204 145.253 16.592 145.021 16.944C144.797 17.288 144.449 17.564 143.977 17.772C143.505 17.972 142.925 18.072 142.237 18.072ZM150.161 11.64C150.753 11.64 151.289 11.776 151.769 12.048C152.249 12.312 152.625 12.688 152.897 13.176C153.169 13.664 153.305 14.22 153.305 14.844C153.305 15.476 153.169 16.036 152.897 16.524C152.625 17.012 152.249 17.392 151.769 17.664C151.297 17.928 150.761 18.06 150.161 18.06C149.649 18.06 149.185 17.956 148.769 17.748C148.361 17.532 148.025 17.22 147.761 16.812V20.328H146.909V11.688H147.725V12.936C147.981 12.52 148.317 12.2 148.733 11.976C149.157 11.752 149.633 11.64 150.161 11.64ZM150.101 17.304C150.541 17.304 150.941 17.204 151.301 17.004C151.661 16.796 151.941 16.504 152.141 16.128C152.349 15.752 152.453 15.324 152.453 14.844C152.453 14.364 152.349 13.94 152.141 13.572C151.941 13.196 151.661 12.904 151.301 12.696C150.941 12.488 150.541 12.384 150.101 12.384C149.653 12.384 149.249 12.488 148.889 12.696C148.537 12.904 148.257 13.196 148.049 13.572C147.849 13.94 147.749 14.364 147.749 14.844C147.749 15.324 147.849 15.752 148.049 16.128C148.257 16.504 148.537 16.796 148.889 17.004C149.249 17.204 149.653 17.304 150.101 17.304ZM157 11.64C157.824 11.64 158.456 11.848 158.896 12.264C159.336 12.672 159.556 13.28 159.556 14.088V18H158.74V17.016C158.548 17.344 158.264 17.6 157.888 17.784C157.52 17.968 157.08 18.06 156.568 18.06C155.864 18.06 155.304 17.892 154.888 17.556C154.472 17.22 154.264 16.776 154.264 16.224C154.264 15.688 154.456 15.256 154.84 14.928C155.232 14.6 155.852 14.436 156.7 14.436H158.704V14.052C158.704 13.508 158.552 13.096 158.248 12.816C157.944 12.528 157.5 12.384 156.916 12.384C156.516 12.384 156.132 12.452 155.764 12.588C155.396 12.716 155.08 12.896 154.816 13.128L154.432 12.492C154.752 12.22 155.136 12.012 155.584 11.868C156.032 11.716 156.504 11.64 157 11.64ZM156.7 17.388C157.18 17.388 157.592 17.28 157.936 17.064C158.28 16.84 158.536 16.52 158.704 16.104V15.072H156.724C155.644 15.072 155.104 15.448 155.104 16.2C155.104 16.568 155.244 16.86 155.524 17.076C155.804 17.284 156.196 17.388 156.7 17.388ZM164.295 18.06C163.671 18.06 163.111 17.924 162.615 17.652C162.127 17.38 161.743 17 161.463 16.512C161.183 16.016 161.043 15.46 161.043 14.844C161.043 14.228 161.183 13.676 161.463 13.188C161.743 12.7 162.127 12.32 162.615 12.048C163.111 11.776 163.671 11.64 164.295 11.64C164.839 11.64 165.323 11.748 165.747 11.964C166.179 12.172 166.519 12.48 166.767 12.888L166.131 13.32C165.923 13.008 165.659 12.776 165.339 12.624C165.019 12.464 164.671 12.384 164.295 12.384C163.839 12.384 163.427 12.488 163.059 12.696C162.699 12.896 162.415 13.184 162.207 13.56C162.007 13.936 161.907 14.364 161.907 14.844C161.907 15.332 162.007 15.764 162.207 16.14C162.415 16.508 162.699 16.796 163.059 17.004C163.427 17.204 163.839 17.304 164.295 17.304C164.671 17.304 165.019 17.228 165.339 17.076C165.659 16.924 165.923 16.692 166.131 16.38L166.767 16.812C166.519 17.22 166.179 17.532 165.747 17.748C165.315 17.956 164.831 18.06 164.295 18.06ZM173.617 15.108H168.337C168.385 15.764 168.637 16.296 169.093 16.704C169.549 17.104 170.125 17.304 170.821 17.304C171.213 17.304 171.573 17.236 171.901 17.1C172.229 16.956 172.513 16.748 172.753 16.476L173.233 17.028C172.953 17.364 172.601 17.62 172.177 17.796C171.761 17.972 171.301 18.06 170.797 18.06C170.149 18.06 169.573 17.924 169.069 17.652C168.573 17.372 168.185 16.988 167.905 16.5C167.625 16.012 167.485 15.46 167.485 14.844C167.485 14.228 167.617 13.676 167.881 13.188C168.153 12.7 168.521 12.32 168.985 12.048C169.457 11.776 169.985 11.64 170.569 11.64C171.153 11.64 171.677 11.776 172.141 12.048C172.605 12.32 172.969 12.7 173.233 13.188C173.497 13.668 173.629 14.22 173.629 14.844L173.617 15.108ZM170.569 12.372C169.961 12.372 169.449 12.568 169.033 12.96C168.625 13.344 168.393 13.848 168.337 14.472H172.813C172.757 13.848 172.521 13.344 172.105 12.96C171.697 12.568 171.185 12.372 170.569 12.372Z" fill="white"/>
<defs>
<linearGradient id="paint0_linear" x1="250" y1="-1.45519e-05" x2="-5.46202e-07" y2="28" gradientUnits="userSpaceOnUse">
<stop stop-color="#44616D"/>
<stop offset="1" stop-color="#344349"/>
</linearGradient>
</defs>
</svg>
