<svg width="25" height="25" viewBox="0 0 25 25" fill="none" xmlns="http://www.w3.org/2000/svg">
<path fill-rule="evenodd" clip-rule="evenodd" d="M0.5 10C0.5 4.48828 4.98877 0 10.5 0C16.0112 0 20.5 4.48828 20.5 10C20.5 12.3984 19.6489 14.5977 18.2363 16.3203L24.207 22.293C24.4683 22.543 24.5737 22.918 24.4819 23.2656C24.3906 23.6172 24.1172 23.8906 23.7666 23.9805C23.416 24.0742 23.0439 23.9688 22.793 23.707L16.8223 17.7344C15.0972 19.1484 12.8965 20 10.5 20C4.98877 20 0.5 15.5117 0.5 10ZM18.5 10C18.5 5.57031 14.9302 2 10.5 2C6.06982 2 2.5 5.57031 2.5 10C2.5 14.4297 6.06982 18 10.5 18C14.9302 18 18.5 14.4297 18.5 10Z" fill="#38474E"/>
</svg>
