<svg width="345" height="207" viewBox="0 0 345 207" fill="none" xmlns="http://www.w3.org/2000/svg">
<path d="M198.81 26.8882C198.49 21.6982 202.05 16.3382 206.74 14.8882C211.43 13.4382 215.54 16.7982 215.91 22.3382C216.28 27.8782 212.73 33.2282 207.98 34.3382C203.23 35.4482 199.12 32.0782 198.81 26.8882Z" fill="url(#paint0_linear)"/>
<path d="M39.36 139.438H31.62V152.338C31.62 153.138 31.64 153.928 31.68 154.708C31.7071 155.429 31.8594 156.139 32.13 156.808C32.378 157.412 32.7945 157.933 33.33 158.308C34.0442 158.733 34.8705 158.932 35.7 158.878C36.3707 158.877 37.0399 158.817 37.7 158.698C38.3536 158.587 38.9829 158.364 39.56 158.038V162.958C38.7841 163.361 37.9396 163.616 37.07 163.708C36.2853 163.828 35.4937 163.898 34.7 163.918C33.0447 164 31.3925 163.703 29.87 163.048C28.8296 162.558 27.9541 161.776 27.35 160.798C26.7882 159.856 26.4464 158.8 26.35 157.708C26.25 156.568 26.2 155.418 26.2 154.258V139.438H20V134.758H26.24V126.758H31.64V134.758H39.38L39.36 139.438Z" fill="#37474F"/>
<path d="M45.54 148.979C45.5239 146.979 45.9223 144.997 46.71 143.159C47.4693 141.389 48.5587 139.781 49.92 138.419C52.7802 135.593 56.6391 134.008 60.66 134.008C64.681 134.008 68.5399 135.593 71.4 138.419C72.7613 139.781 73.8508 141.389 74.61 143.159C75.3978 144.997 75.7961 146.979 75.78 148.979C75.7912 150.947 75.4095 152.897 74.6574 154.715C73.9053 156.534 72.7979 158.184 71.4 159.569C70.0168 160.925 68.3877 162.004 66.6 162.749C62.7937 164.309 58.5263 164.309 54.72 162.749C52.9324 162.004 51.3033 160.925 49.92 159.569C48.5222 158.184 47.4147 156.534 46.6626 154.715C45.9105 152.897 45.5289 150.947 45.54 148.979ZM51.3 148.979C51.2852 150.341 51.5085 151.694 51.96 152.979C52.3615 154.135 52.9944 155.196 53.82 156.099C54.6502 156.963 55.6515 157.644 56.76 158.099C59.2638 159.1 62.0563 159.1 64.56 158.099C65.6685 157.644 66.6699 156.963 67.5 156.099C68.3256 155.196 68.9585 154.135 69.36 152.979C70.2446 150.386 70.2446 147.572 69.36 144.979C68.9585 143.823 68.3256 142.762 67.5 141.859C66.6699 140.995 65.6685 140.314 64.56 139.859C62.0561 138.86 59.264 138.86 56.76 139.859C55.6515 140.314 54.6502 140.995 53.82 141.859C53.0076 142.768 52.3884 143.833 52 144.989C51.5361 146.268 51.2992 147.618 51.3 148.979Z" fill="#37474F"/>
<path d="M83.1602 134.757H88.5602V138.837H88.6802C89.7663 137.281 91.2613 136.056 93.0002 135.297C94.7554 134.472 96.6705 134.041 98.6102 134.037C100.667 134.003 102.709 134.391 104.61 135.177C106.339 135.901 107.893 136.985 109.17 138.357C110.444 139.74 111.433 141.361 112.08 143.127C112.763 145.001 113.101 146.983 113.08 148.977C113.105 150.991 112.766 152.993 112.08 154.887C111.424 156.665 110.413 158.291 109.11 159.667C107.826 161.024 106.273 162.097 104.55 162.817C102.649 163.603 100.607 163.991 98.5502 163.957C96.5675 163.963 94.6089 163.522 92.8202 162.667C91.1384 161.908 89.7038 160.692 88.6802 159.157H88.5602V180.157H83.1602V134.757ZM97.9202 139.077C96.5825 139.057 95.255 139.313 94.0201 139.827C92.9117 140.282 91.9103 140.963 91.0802 141.827C90.2545 142.73 89.6217 143.792 89.2202 144.947C88.3356 147.54 88.3356 150.354 89.2202 152.947C89.6217 154.103 90.2545 155.164 91.0802 156.067C91.9103 156.931 92.9117 157.612 94.0201 158.067C96.5241 159.067 99.3162 159.067 101.82 158.067C102.929 157.612 103.93 156.931 104.76 156.067C105.586 155.164 106.219 154.103 106.62 152.947C107.505 150.354 107.505 147.54 106.62 144.947C106.219 143.792 105.586 142.73 104.76 141.827C103.93 140.963 102.929 140.282 101.82 139.827C100.585 139.313 99.2578 139.057 97.9202 139.077Z" fill="#37474F"/>
<path d="M119.58 124.557C119.571 123.63 119.885 122.728 120.467 122.007C121.05 121.286 121.865 120.789 122.773 120.602C123.681 120.415 124.625 120.549 125.445 120.981C126.266 121.414 126.91 122.118 127.268 122.973C127.627 123.828 127.677 124.781 127.411 125.669C127.145 126.557 126.578 127.325 125.808 127.841C125.039 128.358 124.113 128.591 123.19 128.501C122.268 128.41 121.405 128.002 120.75 127.347C120.375 126.986 120.077 126.553 119.876 126.073C119.675 125.593 119.574 125.077 119.58 124.557ZM120.84 134.757H126.24V163.197H120.84V134.757Z" fill="#37474F"/>
<path d="M155.76 142.318C154.856 141.351 153.79 140.548 152.61 139.948C151.379 139.38 150.035 139.103 148.68 139.138C147.345 139.107 146.021 139.385 144.81 139.948C143.733 140.469 142.79 141.229 142.05 142.168C141.296 143.136 140.726 144.234 140.37 145.408C139.988 146.642 139.796 147.927 139.8 149.218C139.793 150.498 140.016 151.768 140.46 152.968C140.876 154.108 141.507 155.157 142.32 156.058C143.125 156.942 144.106 157.647 145.2 158.128C146.393 158.643 147.681 158.899 148.98 158.878C150.325 158.916 151.661 158.638 152.88 158.068C154.023 157.479 155.042 156.674 155.88 155.698L159.72 159.538C158.394 161.047 156.714 162.202 154.83 162.898C152.934 163.577 150.933 163.916 148.92 163.898C146.87 163.92 144.834 163.553 142.92 162.818C141.164 162.147 139.561 161.126 138.21 159.818C136.872 158.491 135.829 156.896 135.15 155.138C134.415 153.224 134.048 151.189 134.07 149.138C134.046 147.068 134.413 145.013 135.15 143.078C135.815 141.306 136.845 139.694 138.174 138.345C139.502 136.996 141.098 135.941 142.86 135.248C144.798 134.485 146.867 134.108 148.95 134.138C151.002 134.128 153.038 134.504 154.95 135.248C156.857 135.974 158.569 137.135 159.95 138.638L155.76 142.318Z" fill="#37474F"/>
<path d="M163.56 148.979C163.544 146.979 163.942 144.997 164.73 143.159C165.489 141.389 166.579 139.781 167.94 138.419C170.8 135.593 174.659 134.008 178.68 134.008C182.701 134.008 186.56 135.593 189.42 138.419C190.781 139.781 191.871 141.389 192.63 143.159C193.418 144.997 193.816 146.979 193.8 148.979C193.811 150.947 193.43 152.897 192.677 154.715C191.925 156.534 190.818 158.184 189.42 159.569C188.037 160.925 186.408 162.004 184.62 162.749C180.814 164.309 176.546 164.309 172.74 162.749C170.952 162.004 169.323 160.925 167.94 159.569C166.542 158.184 165.435 156.534 164.683 154.715C163.931 152.897 163.549 150.947 163.56 148.979ZM169.32 148.979C169.305 150.341 169.529 151.694 169.98 152.979C170.382 154.135 171.014 155.196 171.84 156.099C172.67 156.963 173.672 157.644 174.78 158.099C177.284 159.1 180.076 159.1 182.58 158.099C183.689 157.644 184.69 156.963 185.52 156.099C186.346 155.196 186.979 154.135 187.38 152.979C188.265 150.386 188.265 147.572 187.38 144.979C186.979 143.823 186.346 142.762 185.52 141.859C184.69 140.995 183.689 140.314 182.58 139.859C180.076 138.86 177.284 138.86 174.78 139.859C173.672 140.314 172.67 140.995 171.84 141.859C171.014 142.762 170.382 143.823 169.98 144.979C169.529 146.264 169.305 147.617 169.32 148.979Z" fill="#90A4AE"/>
<path d="M201.18 134.757H206.58V138.837H206.7C207.778 137.286 209.262 136.061 210.99 135.297C212.745 134.472 214.661 134.041 216.6 134.037C218.657 134.003 220.699 134.391 222.6 135.177C224.329 135.901 225.883 136.985 227.16 138.357C228.434 139.74 229.423 141.361 230.07 143.127C230.753 145.001 231.091 146.983 231.07 148.977C231.095 150.991 230.756 152.993 230.07 154.887C229.427 156.646 228.437 158.258 227.16 159.627C225.876 160.984 224.323 162.057 222.6 162.777C220.699 163.563 218.657 163.951 216.6 163.917C214.607 163.928 212.638 163.487 210.84 162.627C209.158 161.868 207.724 160.652 206.7 159.117H206.58V180.117H201.18V134.757ZM215.94 139.077C214.603 139.057 213.275 139.313 212.04 139.827C210.932 140.282 209.93 140.963 209.1 141.827C208.275 142.73 207.642 143.792 207.24 144.947C206.356 147.54 206.356 150.354 207.24 152.947C207.642 154.103 208.275 155.164 209.1 156.067C209.93 156.931 210.932 157.612 212.04 158.067C214.544 159.068 217.336 159.068 219.84 158.067C220.949 157.612 221.95 156.931 222.78 156.067C223.606 155.164 224.239 154.103 224.64 152.947C225.525 150.354 225.525 147.54 224.64 144.947C224.239 143.792 223.606 142.73 222.78 141.827C221.95 140.963 220.949 140.282 219.84 139.827C218.605 139.313 217.278 139.057 215.94 139.077Z" fill="#90A4AE"/>
<path d="M237.06 148.979C237.044 146.979 237.442 144.997 238.23 143.159C238.989 141.389 240.079 139.781 241.44 138.419C244.3 135.593 248.159 134.008 252.18 134.008C256.201 134.008 260.06 135.593 262.92 138.419C264.281 139.781 265.371 141.389 266.13 143.159C266.918 144.997 267.316 146.979 267.3 148.979C267.311 150.947 266.93 152.897 266.177 154.715C265.425 156.534 264.318 158.184 262.92 159.569C261.537 160.925 259.908 162.004 258.12 162.749C254.314 164.309 250.046 164.309 246.24 162.749C244.452 162.004 242.823 160.925 241.44 159.569C240.042 158.184 238.935 156.534 238.183 154.715C237.431 152.897 237.049 150.947 237.06 148.979ZM242.82 148.979C242.805 150.341 243.029 151.694 243.48 152.979C243.882 154.135 244.514 155.196 245.34 156.099C246.17 156.963 247.172 157.644 248.28 158.099C250.784 159.1 253.576 159.1 256.08 158.099C257.189 157.644 258.19 156.963 259.02 156.099C259.846 155.196 260.479 154.135 260.88 152.979C261.765 150.386 261.765 147.572 260.88 144.979C260.471 143.825 259.832 142.767 259 141.869C258.17 141.005 257.169 140.324 256.06 139.869C253.556 138.87 250.764 138.87 248.26 139.869C247.152 140.324 246.15 141.005 245.32 141.869C244.494 142.772 243.862 143.833 243.46 144.989C243.017 146.272 242.8 147.622 242.82 148.979Z" fill="#90A4AE"/>
<path d="M275.1 117.836H280.5V163.196H275.1V117.836Z" fill="#90A4AE"/>
<path d="M288.84 124.559C288.839 123.777 289.071 123.012 289.505 122.361C289.94 121.711 290.558 121.204 291.281 120.905C292.004 120.606 292.8 120.529 293.567 120.683C294.334 120.837 295.038 121.215 295.59 121.769C295.961 122.133 296.255 122.567 296.456 123.047C296.657 123.526 296.76 124.04 296.76 124.559C296.76 125.079 296.657 125.593 296.456 126.072C296.255 126.551 295.961 126.985 295.59 127.349C295.029 127.881 294.327 128.238 293.567 128.379C292.808 128.52 292.024 128.438 291.31 128.143C290.597 127.848 289.983 127.352 289.545 126.716C289.107 126.081 288.862 125.331 288.84 124.559ZM290.1 134.759H295.5V163.199H290.1V134.759Z" fill="#90A4AE"/>
<path d="M319.79 141.897C319.133 141.087 318.329 140.409 317.42 139.897C316.361 139.328 315.171 139.049 313.97 139.087C312.808 139.058 311.659 139.337 310.64 139.897C310.205 140.118 309.841 140.459 309.592 140.878C309.342 141.298 309.217 141.779 309.23 142.267C309.22 142.638 309.287 143.008 309.427 143.352C309.566 143.696 309.775 144.007 310.04 144.267C310.599 144.8 311.249 145.226 311.96 145.527C312.721 145.854 313.516 146.095 314.33 146.247L316.49 146.667C317.602 146.926 318.694 147.26 319.76 147.667C320.723 148.032 321.616 148.56 322.4 149.227C323.143 149.872 323.737 150.67 324.14 151.567C324.588 152.629 324.803 153.775 324.77 154.927C324.817 156.363 324.472 157.784 323.77 159.037C323.112 160.154 322.209 161.108 321.13 161.827C320.005 162.567 318.754 163.095 317.44 163.387C316.073 163.706 314.674 163.867 313.27 163.867C311.15 163.91 309.041 163.543 307.06 162.787C305.123 161.933 303.469 160.546 302.29 158.787L306.37 155.427C307.259 156.315 308.246 157.1 309.31 157.767C310.519 158.479 311.908 158.826 313.31 158.767C314.005 158.766 314.699 158.695 315.38 158.557C316.03 158.435 316.658 158.212 317.24 157.897C317.757 157.617 318.208 157.228 318.56 156.757C318.9 156.298 319.079 155.739 319.07 155.167C319.085 154.801 319.027 154.435 318.898 154.091C318.769 153.748 318.573 153.433 318.32 153.167C317.809 152.64 317.197 152.221 316.52 151.937C315.803 151.632 315.06 151.391 314.3 151.217C313.52 151.037 312.83 150.887 312.23 150.767C311.07 150.487 309.97 150.154 308.93 149.767C307.94 149.434 307.009 148.948 306.17 148.327C305.366 147.722 304.709 146.943 304.25 146.047C303.738 144.982 303.491 143.809 303.53 142.627C303.498 141.278 303.818 139.944 304.46 138.757C305.065 137.674 305.906 136.741 306.92 136.027C307.977 135.29 309.155 134.742 310.4 134.407C311.68 134.05 313.002 133.868 314.33 133.867C316.223 133.862 318.099 134.229 319.85 134.947C321.603 135.661 323.077 136.924 324.05 138.547L319.79 141.897Z" fill="#90A4AE"/>
<path d="M150.46 39.8789C150.6 44.1089 146.86 48.3989 142.11 49.4789C137.36 50.5589 133.43 48.2789 133.35 44.3989C133.27 40.5189 137.01 36.2289 141.7 34.8089C146.39 33.3889 150.31 35.6689 150.46 39.8789Z" fill="url(#paint1_linear)"/>
<path d="M243 69.858L230.3 70.668C231.3 84.278 224.57 95.308 212.98 95.268C198.56 95.268 190.33 85.678 181.65 74.688C180.95 73.8413 180.25 72.9813 179.55 72.108L178.55 70.848L178.3 70.548C177.3 69.378 176.36 68.208 175.35 67.058C166.72 57.508 156.44 49.468 139.29 53.008C122.83 56.368 113.16 67.908 113.16 79.668L121.79 79.108C121.71 70.668 128.21 62.848 139.46 60.988C153.46 58.678 161.29 65.918 169.76 75.638C170.45 76.448 171.14 77.278 171.84 78.128C173.22 79.798 174.63 81.528 176.09 83.268C184.96 94.108 195.79 105.268 213.68 106.048C230.82 106.738 244.6 90.508 243 69.858Z" fill="url(#paint2_linear)"/>
<path d="M197.7 26.3374C197.39 21.1474 200.95 15.7874 205.64 14.3374C210.33 12.8874 214.44 16.2474 214.81 21.7874C215.18 27.3274 211.63 32.6774 206.88 33.7874C202.13 34.8974 198 31.5274 197.7 26.3374Z" fill="url(#paint3_linear)"/>
<path d="M179.55 72.0867L181.64 74.6667L179.55 72.0867C188.08 84.4967 199.69 102.637 217.7 103.187C231.8 103.617 243.37 89.1868 242.95 69.8568H243C241.44 49.1968 225.58 36.2567 209.28 38.5367C191.95 40.9567 182.86 54.8768 175.28 67.0368C176.76 68.6668 178.17 70.3967 179.55 72.0867ZM210 49.3168C222 48.8968 229.58 59.0568 230.28 70.6468C231.1 84.2868 223.12 95.2467 212.96 95.2467C198.54 95.2467 190.31 85.6567 181.63 74.6667C189.05 62.3967 195.82 49.8168 210 49.3168Z" fill="url(#paint4_linear)"/>
<path d="M171.84 78.1186C171.14 77.2686 170.45 76.4486 169.76 75.6286C170.45 76.4486 171.14 77.2686 171.84 78.1186C163.49 66.7586 152.58 52.6086 135.26 55.9786C121.7 58.6186 114.26 68.5286 113.26 79.6586H113.18C113.18 91.4186 123.42 103.389 140.57 103.429C157.1 103.429 168.29 94.1286 176.11 83.2586C174.63 81.5186 173.22 79.7886 171.84 78.1186ZM141.06 93.7886C131.65 93.7886 122.32 88.7386 122.34 79.0986C122.34 69.7386 128.21 62.8386 139.46 60.9786C153.46 58.6686 161.29 65.9086 169.76 75.6286C162.13 86.6686 154.22 93.7886 141.06 93.7886Z" fill="url(#paint5_linear)"/>
<path d="M149.61 39.0361C149.76 43.2561 146.02 47.5561 141.26 48.6261C136.5 49.6961 132.59 47.4361 132.51 43.5561C132.43 39.6761 136.16 35.3861 140.86 33.9661C145.56 32.5461 149.47 34.8161 149.61 39.0361Z" fill="url(#paint6_linear)"/>
<defs>
<linearGradient id="paint0_linear" x1="207.36" y1="33.9182" x2="207.36" y2="14.5682" gradientUnits="userSpaceOnUse">
<stop stop-color="#37474F"/>
<stop offset="1" stop-color="#263238"/>
</linearGradient>
<linearGradient id="paint1_linear" x1="2373.71" y1="528.837" x2="2373.71" y2="757.706" gradientUnits="userSpaceOnUse">
<stop stop-color="#37474F"/>
<stop offset="1" stop-color="#263238"/>
</linearGradient>
<linearGradient id="paint2_linear" x1="178.16" y1="-12.602" x2="178.16" y2="177.008" gradientUnits="userSpaceOnUse">
<stop stop-color="#90A4AE"/>
<stop offset="1" stop-color="#B0BEC5"/>
</linearGradient>
<linearGradient id="paint3_linear" x1="3664.54" y1="1394.53" x2="3664.54" y2="1007.55" gradientUnits="userSpaceOnUse">
<stop stop-color="#90A4AE"/>
<stop offset="1" stop-color="#B0BEC5"/>
</linearGradient>
<linearGradient id="paint4_linear" x1="-17593.8" y1="-7077.47" x2="-13007.8" y2="-7077.47" gradientUnits="userSpaceOnUse">
<stop stop-color="#37474F"/>
<stop offset="1" stop-color="#263238"/>
</linearGradient>
<linearGradient id="paint5_linear" x1="6542.11" y1="3737.53" x2="10502.3" y2="3737.53" gradientUnits="userSpaceOnUse">
<stop stop-color="#37474F"/>
<stop offset="1" stop-color="#263238"/>
</linearGradient>
<linearGradient id="paint6_linear" x1="2357.27" y1="514.721" x2="2357.27" y2="743.262" gradientUnits="userSpaceOnUse">
<stop stop-color="#90A4AE"/>
<stop offset="1" stop-color="#B0BEC5"/>
</linearGradient>
</defs>
</svg>
