<svg width="25" height="20" viewBox="0 0 25 14" fill="none" xmlns="http://www.w3.org/2000/svg">
<path d="M5.49268 0C4.97119 0 4.57666 0.300781 4.30518 0.640625C4.29932 0.650391 4.29346 0.662109 4.28955 0.671875L0.0864258 6.71875C-0.0288086 6.88867 -0.0288086 7.11133 0.0864258 7.28125L4.2583 13.2812L4.28955 13.3281C4.5415 13.7656 5.02197 14 5.49268 14H23.4927C24.3149 14 24.9927 13.3223 24.9927 12.5V1.5C24.9927 0.677734 24.3149 0 23.4927 0H5.49268ZM5.49268 1H23.4927C23.77 1 23.9927 1.22266 23.9927 1.5V12.5C23.9927 12.7773 23.77 13 23.4927 13H5.49268C5.28565 13 5.19385 12.9492 5.1333 12.8281C5.12354 12.8066 5.11377 12.7852 5.10205 12.7656L1.10205 7L5.08643 1.26562C5.21533 1.10547 5.41455 1 5.49268 1ZM6.99268 5.5C6.17041 5.5 5.49268 6.17773 5.49268 7C5.49268 7.82227 6.17041 8.5 6.99268 8.5C7.81494 8.5 8.49268 7.82227 8.49268 7C8.49268 6.17773 7.81494 5.5 6.99268 5.5ZM10.9927 5.5C10.1704 5.5 9.49268 6.17773 9.49268 7C9.49268 7.82227 10.1704 8.5 10.9927 8.5C11.8149 8.5 12.4927 7.82227 12.4927 7C12.4927 6.17773 11.8149 5.5 10.9927 5.5ZM14.9927 5.5C14.1704 5.5 13.4927 6.17773 13.4927 7C13.4927 7.82227 14.1704 8.5 14.9927 8.5C15.8149 8.5 16.4927 7.82227 16.4927 7C16.4927 6.17773 15.8149 5.5 14.9927 5.5ZM18.9927 5.5C18.1704 5.5 17.4927 6.17773 17.4927 7C17.4927 7.82227 18.1704 8.5 18.9927 8.5C19.8149 8.5 20.4927 7.82227 20.4927 7C20.4927 6.17773 19.8149 5.5 18.9927 5.5ZM6.99268 6.5C7.27393 6.5 7.49268 6.71875 7.49268 7C7.49268 7.28125 7.27393 7.5 6.99268 7.5C6.71143 7.5 6.49268 7.28125 6.49268 7C6.49268 6.71875 6.71143 6.5 6.99268 6.5ZM10.9927 6.5C11.2739 6.5 11.4927 6.71875 11.4927 7C11.4927 7.28125 11.2739 7.5 10.9927 7.5C10.7114 7.5 10.4927 7.28125 10.4927 7C10.4927 6.71875 10.7114 6.5 10.9927 6.5ZM14.9927 6.5C15.2739 6.5 15.4927 6.71875 15.4927 7C15.4927 7.28125 15.2739 7.5 14.9927 7.5C14.7114 7.5 14.4927 7.28125 14.4927 7C14.4927 6.71875 14.7114 6.5 14.9927 6.5ZM18.9927 6.5C19.2739 6.5 19.4927 6.71875 19.4927 7C19.4927 7.28125 19.2739 7.5 18.9927 7.5C18.7114 7.5 18.4927 7.28125 18.4927 7C18.4927 6.71875 18.7114 6.5 18.9927 6.5Z" fill="#38474E"/>
</svg>
