<svg width="21" height="21" viewBox="0 0 21 21" fill="none" xmlns="http://www.w3.org/2000/svg">
<path d="M2.5 0C1.12727 0 0 1.12727 0 2.5V18.5C0 19.8727 1.12727 21 2.5 21H18.5C19.8727 21 21 19.8727 21 18.5V2.5C21 1.12727 19.8727 0 18.5 0H2.5ZM2.5 1H18.5C19.3273 1 20 1.67273 20 2.5V18.5C20 19.1771 19.546 19.7438 18.9287 19.9297C18.7792 19.1299 18.4191 18.4883 17.9424 18.0039C17.3622 17.4143 16.6389 17.0405 15.9346 16.7363C15.2303 16.4321 14.5363 16.1946 14.0078 15.9316C13.4958 15.6768 13.1942 15.414 13.0635 15.1113C13.0326 14.5983 13.0278 14.1757 13.0273 13.7197C13.228 13.5184 13.3802 13.2842 13.5283 12.9805C13.7041 12.62 13.8226 12.1808 13.8975 11.7393C14.2878 11.5184 14.6065 11.1067 14.6826 10.3506L14.6836 10.3486V10.3457C14.7243 9.9007 14.5868 9.59127 14.4111 9.34863C14.6237 8.67221 14.8748 7.61764 14.7852 6.51367C14.7354 5.90022 14.5779 5.27883 14.1982 4.7627C13.8588 4.30126 13.3082 3.98242 12.6309 3.83887C12.4333 3.57025 12.1712 3.35632 11.8525 3.23047C11.4468 3.07024 10.9745 3 10.4551 3H10.4492H10.4434C8.45677 3.04766 7.16454 3.87349 6.61035 5.12598C6.08643 6.31006 6.19649 7.76995 6.56152 9.27734C6.36627 9.5197 6.20031 9.84866 6.28027 10.3262C6.36035 11.0888 6.68834 11.4856 7.06348 11.6973C7.14272 12.13 7.2685 12.5635 7.45312 12.9258C7.56247 13.1404 7.67976 13.3332 7.80176 13.4971C7.85039 13.5624 7.92199 13.6053 7.97266 13.6621C7.97886 14.169 7.99871 14.5684 7.93848 15.0742C7.81597 15.3878 7.51852 15.6538 7.00684 15.915C6.48219 16.1829 5.78823 16.4238 5.08203 16.7305C4.37583 17.0371 3.64908 17.4122 3.06543 18.002C2.58574 18.4867 2.22189 19.1287 2.07129 19.9297C1.45402 19.7438 1 19.1771 1 18.5V2.5C1 1.67273 1.67273 1 2.5 1ZM10.46 4.00098C10.8819 4.00158 11.2405 4.06445 11.4854 4.16113C11.7313 4.25828 11.8455 4.37436 11.8887 4.46875L12.0029 4.7207L12.2783 4.75684C12.8518 4.83173 13.1655 5.04673 13.3926 5.35547C13.6197 5.6642 13.748 6.10093 13.7881 6.59473C13.8682 7.58232 13.5811 8.76101 13.3984 9.28613L13.2715 9.65234L13.5938 9.86719C13.5585 9.84371 13.7163 9.93079 13.6875 10.2539V10.2549C13.6088 10.9953 13.2938 10.9639 13.4668 10.9639H13.0146L12.9688 11.4131C12.9319 11.7798 12.7921 12.2074 12.6289 12.542C12.4657 12.8766 12.1971 13.1314 12.2754 13.0869L12.0225 13.2305V13.5215C12.0225 14.103 12.0223 14.6125 12.0684 15.2998L12.0742 15.376L12.1016 15.4473C12.3612 16.116 12.9421 16.5184 13.5625 16.8271C14.1829 17.1359 14.8828 17.3713 15.5381 17.6543C16.1934 17.9373 16.7957 18.2643 17.2295 18.7051C17.5644 19.0454 17.8112 19.4477 17.9297 20H3.07129C3.19064 19.4488 3.43883 19.0471 3.77637 18.7061C4.21376 18.2641 4.8205 17.9346 5.47949 17.6484C6.13848 17.3623 6.84092 17.1222 7.46094 16.8057C8.08096 16.4891 8.65959 16.072 8.90332 15.3896L8.9209 15.3398L8.92773 15.2871C9.02454 14.5653 8.97754 14.0791 8.97754 13.4766V13.1855L8.72461 13.042C8.76707 13.0661 8.68243 13.0064 8.60352 12.9004C8.5246 12.7944 8.43103 12.643 8.34375 12.4717C8.16919 12.1291 8.02065 11.6996 7.98535 11.3662L7.93848 10.9189H7.50781C7.47651 10.906 7.32481 10.8054 7.26758 10.208L7.26562 10.1865L7.26172 10.166C7.2093 9.87948 7.35378 9.82662 7.36035 9.82227L7.6582 9.625L7.56738 9.27832C7.1778 7.79174 7.12348 6.43738 7.52441 5.53125C7.92475 4.62648 8.72152 4.04438 10.46 4.00098Z" fill="#38474E"/>
</svg>
