<svg xmlns="http://www.w3.org/2000/svg" xmlns:xlink="http://www.w3.org/1999/xlink" viewBox="0 0 323.92 188.13"><defs><style>.cls-1{fill:url(#Sfumatura_senza_nome_69);}.cls-2{fill:#37474f;}.cls-3{fill:#90a4ae;}.cls-4{fill:url(#Sfumatura_senza_nome_69-2);}.cls-5{fill:url(#Sfumatura_senza_nome_10);}.cls-6{fill:url(#Sfumatura_senza_nome_10-2);}.cls-7{fill:url(#Sfumatura_senza_nome_69-3);}.cls-8{fill:url(#Sfumatura_senza_nome_69-4);}.cls-9{fill:url(#Sfumatura_senza_nome_10-3);}</style><linearGradient id="Sfumatura_senza_nome_69" x1="-226.72" y1="-72.79" x2="-226.72" y2="-53.44" gradientTransform="translate(-30.36 -41.54) rotate(180)" gradientUnits="userSpaceOnUse"><stop offset="0" stop-color="#37474f"/><stop offset="1" stop-color="#263238"/></linearGradient><linearGradient id="Sfumatura_senza_nome_69-2" x1="130.9" y1="32.19" x2="130.9" y2="47.09" gradientTransform="matrix(1, 0, 0, 1, 0, 0)" xlink:href="#Sfumatura_senza_nome_69"/><linearGradient id="Sfumatura_senza_nome_10" x1="167.16" y1="-15.27" x2="167.16" y2="174.34" gradientUnits="userSpaceOnUse"><stop offset="0" stop-color="#90a4ae"/><stop offset="1" stop-color="#b0bec5"/></linearGradient><linearGradient id="Sfumatura_senza_nome_10-2" x1="-225.62" y1="-72.24" x2="-225.62" y2="-52.89" gradientTransform="translate(-30.36 -41.54) rotate(180)" xlink:href="#Sfumatura_senza_nome_10"/><linearGradient id="Sfumatura_senza_nome_69-3" x1="-262.39" y1="-109.61" x2="-194.67" y2="-109.61" xlink:href="#Sfumatura_senza_nome_69"/><linearGradient id="Sfumatura_senza_nome_69-4" x1="102.16" y1="76.78" x2="165.09" y2="76.78" gradientTransform="matrix(1, 0, 0, 1, 0, 0)" xlink:href="#Sfumatura_senza_nome_69"/><linearGradient id="Sfumatura_senza_nome_10-3" x1="130.06" y1="31.35" x2="130.06" y2="46.24" xlink:href="#Sfumatura_senza_nome_10"/></defs><title>logo_text_2</title><g id="Livello_2" data-name="Livello 2"><path class="cls-1" d="M187.81,24.22c-.32-5.19,3.24-10.55,7.93-12s8.8,1.91,9.17,7.45-3.18,10.89-7.93,12S188.12,29.41,187.81,24.22Z"/><path class="cls-2" d="M28.36,136.77H20.62v12.9q0,1.2.06,2.37a6.22,6.22,0,0,0,.45,2.1,3.41,3.41,0,0,0,1.2,1.5,4.11,4.11,0,0,0,2.37.57,11.39,11.39,0,0,0,2-.18,5.72,5.72,0,0,0,1.86-.66v4.92a7,7,0,0,1-2.49.75,18.69,18.69,0,0,1-2.37.21,10.86,10.86,0,0,1-4.83-.87,5.93,5.93,0,0,1-2.52-2.25,7.28,7.28,0,0,1-1-3.09q-.15-1.71-.15-3.45V136.77H9v-4.68h6.24v-8h5.4v8h7.74Z"/><path class="cls-2" d="M34.54,146.31a14.48,14.48,0,0,1,1.17-5.82,15.16,15.16,0,0,1,3.21-4.74,15.28,15.28,0,0,1,21.48,0,15.16,15.16,0,0,1,3.21,4.74,14.48,14.48,0,0,1,1.17,5.82A14.79,14.79,0,0,1,60.4,156.9a15.23,15.23,0,0,1-4.8,3.18,15.66,15.66,0,0,1-11.88,0,15.23,15.23,0,0,1-4.8-3.18,14.79,14.79,0,0,1-4.38-10.59Zm5.76,0a11.68,11.68,0,0,0,.66,4,9,9,0,0,0,1.86,3.12,8.61,8.61,0,0,0,2.94,2,10.51,10.51,0,0,0,7.8,0,8.61,8.61,0,0,0,2.94-2,9,9,0,0,0,1.86-3.12,12.39,12.39,0,0,0,0-8,9,9,0,0,0-1.86-3.12,8.61,8.61,0,0,0-2.94-2,10.52,10.52,0,0,0-7.8,0,8.61,8.61,0,0,0-2.94,2A9,9,0,0,0,41,142.32,11.68,11.68,0,0,0,40.3,146.31Z"/><path class="cls-2" d="M72.16,132.09h5.4v4.08h.12A10.29,10.29,0,0,1,82,132.63a13.25,13.25,0,0,1,5.61-1.26,15.06,15.06,0,0,1,6,1.14,13.19,13.19,0,0,1,4.56,3.18,14.3,14.3,0,0,1,2.91,4.77,16.58,16.58,0,0,1,1,5.85,16.75,16.75,0,0,1-1,5.91A14,14,0,0,1,98.11,157a13.39,13.39,0,0,1-4.56,3.15,15.06,15.06,0,0,1-6,1.14A13.19,13.19,0,0,1,81.82,160a9.84,9.84,0,0,1-4.14-3.51h-.12v21h-5.4Zm14.76,4.32a9.76,9.76,0,0,0-3.9.75,8.61,8.61,0,0,0-2.94,2,9,9,0,0,0-1.86,3.12,12.39,12.39,0,0,0,0,8,9,9,0,0,0,1.86,3.12,8.61,8.61,0,0,0,2.94,2,10.52,10.52,0,0,0,7.8,0,8.61,8.61,0,0,0,2.94-2,9,9,0,0,0,1.86-3.12,12.39,12.39,0,0,0,0-8,9,9,0,0,0-1.86-3.12,8.61,8.61,0,0,0-2.94-2A9.76,9.76,0,0,0,86.92,136.41Z"/><path class="cls-2" d="M108.58,121.89a4,4,0,1,1,1.17,2.79A3.81,3.81,0,0,1,108.58,121.89Zm1.26,10.2h5.4v28.44h-5.4Z"/><path class="cls-2" d="M144.76,139.65a11.34,11.34,0,0,0-3.15-2.37,8.83,8.83,0,0,0-3.93-.81,8.69,8.69,0,0,0-3.87.81,7.88,7.88,0,0,0-2.76,2.22,10,10,0,0,0-1.68,3.24,12.74,12.74,0,0,0-.57,3.81,10.65,10.65,0,0,0,.66,3.75,9.45,9.45,0,0,0,1.86,3.09,8.56,8.56,0,0,0,2.88,2.07,9.18,9.18,0,0,0,3.78.75,8.64,8.64,0,0,0,3.9-.81,10,10,0,0,0,3-2.37l3.84,3.84a12.09,12.09,0,0,1-4.89,3.36,17.08,17.08,0,0,1-5.91,1,16.26,16.26,0,0,1-6-1.08,13.93,13.93,0,0,1-4.71-3,13.39,13.39,0,0,1-3.06-4.68,16.26,16.26,0,0,1-1.08-6,16.49,16.49,0,0,1,1.08-6.06,13.52,13.52,0,0,1,7.71-7.83,16,16,0,0,1,6.09-1.11,16.31,16.31,0,0,1,6,1.11,13.13,13.13,0,0,1,5,3.39Z"/><path class="cls-3" d="M152.56,146.31a14.48,14.48,0,0,1,1.17-5.82,15.16,15.16,0,0,1,3.21-4.74,15.28,15.28,0,0,1,21.48,0,15.16,15.16,0,0,1,3.21,4.74,14.48,14.48,0,0,1,1.17,5.82,14.79,14.79,0,0,1-4.38,10.59,15.23,15.23,0,0,1-4.8,3.18,15.66,15.66,0,0,1-11.88,0,15.23,15.23,0,0,1-4.8-3.18,14.79,14.79,0,0,1-4.38-10.59Zm5.76,0a11.68,11.68,0,0,0,.66,4,9,9,0,0,0,1.86,3.12,8.61,8.61,0,0,0,2.94,2,10.51,10.51,0,0,0,7.8,0,8.61,8.61,0,0,0,2.94-2,9,9,0,0,0,1.86-3.12,12.39,12.39,0,0,0,0-8,9,9,0,0,0-1.86-3.12,8.61,8.61,0,0,0-2.94-2,10.52,10.52,0,0,0-7.8,0,8.61,8.61,0,0,0-2.94,2,9,9,0,0,0-1.86,3.12A11.68,11.68,0,0,0,158.32,146.31Z"/><path class="cls-3" d="M190.18,132.09h5.4v4.08h.12a10.29,10.29,0,0,1,4.29-3.54,13.25,13.25,0,0,1,5.61-1.26,15.06,15.06,0,0,1,6,1.14,13.19,13.19,0,0,1,4.56,3.18,14.3,14.3,0,0,1,2.91,4.77,16.58,16.58,0,0,1,1,5.85,16.75,16.75,0,0,1-1,5.91,14,14,0,0,1-2.91,4.74,13.39,13.39,0,0,1-4.56,3.15,15.06,15.06,0,0,1-6,1.14,13.19,13.19,0,0,1-5.76-1.29,9.84,9.84,0,0,1-4.14-3.51h-.12v21h-5.4Zm14.76,4.32a9.76,9.76,0,0,0-3.9.75,8.61,8.61,0,0,0-2.94,2,9,9,0,0,0-1.86,3.12,12.39,12.39,0,0,0,0,8,9,9,0,0,0,1.86,3.12,8.61,8.61,0,0,0,2.94,2,10.51,10.51,0,0,0,7.8,0,8.61,8.61,0,0,0,2.94-2,9,9,0,0,0,1.86-3.12,12.39,12.39,0,0,0,0-8,9,9,0,0,0-1.86-3.12,8.61,8.61,0,0,0-2.94-2A9.76,9.76,0,0,0,204.94,136.41Z"/><path class="cls-3" d="M226.06,146.31a14.48,14.48,0,0,1,1.17-5.82,15.16,15.16,0,0,1,3.21-4.74,15.28,15.28,0,0,1,21.48,0,15.16,15.16,0,0,1,3.21,4.74,14.48,14.48,0,0,1,1.17,5.82,14.79,14.79,0,0,1-4.38,10.59,15.23,15.23,0,0,1-4.8,3.18,15.66,15.66,0,0,1-11.88,0,15.23,15.23,0,0,1-4.8-3.18,14.79,14.79,0,0,1-4.38-10.59Zm5.76,0a11.68,11.68,0,0,0,.66,4,9,9,0,0,0,1.86,3.12,8.61,8.61,0,0,0,2.94,2,10.51,10.51,0,0,0,7.8,0,8.61,8.61,0,0,0,2.94-2,9,9,0,0,0,1.86-3.12,12.39,12.39,0,0,0,0-8A9,9,0,0,0,248,139.2a8.61,8.61,0,0,0-2.94-2,10.52,10.52,0,0,0-7.8,0,8.61,8.61,0,0,0-2.94,2,9,9,0,0,0-1.86,3.12A11.68,11.68,0,0,0,231.82,146.31Z"/><path class="cls-3" d="M264.1,115.17h5.4v45.36h-5.4Z"/><path class="cls-3" d="M277.84,121.89a3.95,3.95,0,0,1,6.75-2.79,3.91,3.91,0,0,1,0,5.58,4,4,0,0,1-6.75-2.79Zm1.26,10.2h5.4v28.44h-5.4Z"/><path class="cls-3" d="M308.79,139.23a8.28,8.28,0,0,0-2.37-2,6.83,6.83,0,0,0-3.45-.81,6.57,6.57,0,0,0-3.33.81,2.58,2.58,0,0,0-1.41,2.37,2.7,2.7,0,0,0,.81,2,6.4,6.4,0,0,0,1.92,1.26,11.26,11.26,0,0,0,2.37.72l2.16.42a25,25,0,0,1,3.27,1,9,9,0,0,1,2.64,1.56,6.77,6.77,0,0,1,1.74,2.34,8.06,8.06,0,0,1,.63,3.36,7.88,7.88,0,0,1-1,4.11,8.6,8.6,0,0,1-2.64,2.79,11.11,11.11,0,0,1-3.69,1.56,18.4,18.4,0,0,1-4.17.48,16.48,16.48,0,0,1-6.21-1.08,11.17,11.17,0,0,1-4.77-4l4.08-3.36a16.8,16.8,0,0,0,2.94,2.34,7.29,7.29,0,0,0,4,1,10.54,10.54,0,0,0,2.07-.21,6.39,6.39,0,0,0,1.86-.66,4.07,4.07,0,0,0,1.32-1.14,2.6,2.6,0,0,0,.51-1.59,2.74,2.74,0,0,0-.75-2,5.43,5.43,0,0,0-1.8-1.23,13.1,13.1,0,0,0-2.22-.72q-1.17-.27-2.07-.45-1.74-.42-3.3-1a10,10,0,0,1-2.76-1.44,6.65,6.65,0,0,1-1.92-2.28,7.34,7.34,0,0,1-.72-3.42,7.75,7.75,0,0,1,.93-3.87,8.27,8.27,0,0,1,2.46-2.73,11.13,11.13,0,0,1,3.48-1.62,14.66,14.66,0,0,1,3.93-.54,14.44,14.44,0,0,1,5.52,1.08,8.74,8.74,0,0,1,4.2,3.6Z"/><path class="cls-4" d="M139.46,37.21c.14,4.23-3.6,8.52-8.35,9.6s-8.68-1.2-8.76-5.08,3.66-8.17,8.35-9.59S139.31,33,139.46,37.21Z"/><path class="cls-5" d="M232,67.19,219.3,68c1,13.61-5.73,24.64-17.32,24.6-14.42,0-22.65-9.59-31.33-20.58q-1.05-1.27-2.1-2.58l-1-1.26h0l-.25-.3c-1-1.17-1.94-2.34-2.95-3.49h0c-8.63-9.55-18.91-17.59-36.06-14.05C111.83,53.7,102.16,65.24,102.16,77l8.63-.56c-.08-8.44,6.42-16.26,17.67-18.12,14-2.31,21.83,4.93,30.3,14.65.69.81,1.38,1.64,2.08,2.49,1.38,1.67,2.79,3.4,4.25,5.14h0c8.87,10.84,19.7,22,37.59,22.78C219.82,104.07,233.6,87.84,232,67.19Zm-66.95,13.4Z"/><path class="cls-6" d="M186.7,23.67c-.31-5.19,3.25-10.55,7.94-12s8.8,1.91,9.17,7.45-3.18,10.89-7.93,12S187,28.86,186.7,23.67Z"/><path class="cls-7" d="M168.55,69.42,170.64,72l-2.09-2.58c8.53,12.41,20.14,30.55,38.15,31.1,14.1.43,25.67-14,25.25-33.33H232c-1.56-20.66-17.42-33.6-33.72-31.32-17.33,2.42-26.42,16.34-34,28.5C165.76,66,167.17,67.73,168.55,69.42ZM199,46.65c12-.42,19.58,9.74,20.28,21.33.82,13.64-7.16,24.6-17.32,24.6-14.42,0-22.65-9.59-31.33-20.58C178.05,59.73,184.82,47.15,199,46.65Z"/><path class="cls-8" d="M160.84,75.45c-.7-.85-1.39-1.67-2.08-2.49.69.82,1.38,1.64,2.08,2.49-8.35-11.36-19.26-25.51-36.58-22.14-13.56,2.64-21,12.55-22,23.68h-.08c0,11.76,10.24,23.73,27.39,23.77,16.53,0,27.72-9.3,35.54-20.17C163.63,78.85,162.22,77.12,160.84,75.45ZM130.06,91.12c-9.41,0-18.74-5.05-18.72-14.69,0-9.36,5.87-16.26,17.12-18.12,14-2.31,21.83,4.93,30.3,14.65C151.13,84,143.22,91.12,130.06,91.12Z"/><path class="cls-9" d="M138.61,36.37c.15,4.22-3.59,8.52-8.35,9.59s-8.67-1.19-8.75-5.07,3.65-8.17,8.35-9.59S138.47,32.15,138.61,36.37Z"/></g></svg>