<?xml version="1.0" encoding="utf-8"?>
<!-- Generator: Adobe Illustrator 18.0.0, SVG Export Plug-In . SVG Version: 6.00 Build 0)  -->
<!DOCTYPE svg PUBLIC "-//W3C//DTD SVG 1.1//EN" "http://www.w3.org/Graphics/SVG/1.1/DTD/svg11.dtd">
<svg version="1.1" id="Layer_1" xmlns="http://www.w3.org/2000/svg" xmlns:xlink="http://www.w3.org/1999/xlink" x="0px" y="0px"
	 viewBox="0 0 1920 1080" enable-background="new 0 0 1920 1080" xml:space="preserve">
<rect x="-5" y="-11" display="none" fill="#F2F4F5" width="1932" height="1098"/>
<g opacity="0.2">
	<defs>
		<rect id="SVGID_1_" x="-82.6" y="-1" opacity="0.2" width="2090.6" height="1081"/>
	</defs>
	<clipPath id="SVGID_2_">
		<use xlink:href="#SVGID_1_"  overflow="visible"/>
	</clipPath>
	<rect opacity="0.37" clip-path="url(#SVGID_2_)" fill="#CCE1FF" width="1920" height="1080"/>
	<line opacity="0.32" clip-path="url(#SVGID_2_)" fill="#D1CCE2" x1="-143.6" y1="994.5" x2="-140.6" y2="909"/>
	<path clip-path="url(#SVGID_2_)" fill="#6D6781" d="M-101.6,680"/>
	<g opacity="0.75" clip-path="url(#SVGID_2_)">
		<g>
			<path fill="#CCE1FF" d="M1700.1,804.5V489.4h-84.5v274.8h-2.5V586.7h-78v-70h-84.5V673h-3.1v10.7h-4.8v29h-7.1V608.3h-9.7v-33.2
				h-5.5v-12.4l-45-111.7l-36.9,114.1v9.1h-7.5v33.9h-8.1v132.2h-13.1v-67.7h-10.7l-19.3-231.2l-20.7,158.6V599
				c0,0-11.2-26.4-25.6-25.6c-14.4,0.8-29.4,6.6-34.4,20.6c-5,14-3.1,15.7-3.1,15.7l-13.1,2.5v9.9h-5.6v30.6h-6.9v110.7h-7.5
				l1.3,13.2h-10.6l-8.1-62.8l-8.1,62.8h-8.7v-16.5h-16.9v12.4h-9.4V765h-6.9V532.1h-44.4c0,0-1.9,158.6,0,158.6
				c-1.4,0-11.2,0-11.2,0v12.4l-10-13.2l-10.9,14.5v73.9h-8.4V794h-6.3v22.3h-6.9v30.6h-11.2l-5.9,7.8h-5.3v-9.5h-8.1l-1.3-180.1
				h-13.1v-33h-10.6V623l-14.7-19.4h-32.2L879.4,624v7.2l-10.2,5.8l1.2,12.4h-5.6v16.5h-5v-82.6h-23.1v-84.4h-47.6V394.2h-38.6
				l0-82.7l-4-38.6v121.3h-20.8v104.8h-35.7v74.3h-32.3v7.5h-4.3v2.7h-6.4V413.8h-50.5v22.9h-14.9v32.1H561v59h-15.7V459h-23.7v68.8
				h-14.2v-3.4c0,0-6.5-18-15.5-21.7v-25.3h-20.8v30.4c-3.9,2.9-7,6.9-8.7,12.3c-2.1,6.8-2.6,10.3-2.6,12h-7.5v-27.9h-11.9v27.9
				h-1.2v-66.3h-26.5V457h-7.9v8.8h-1.2V400h-5.9v65.8h-20.8v-24.5H368v24.5h-16.5c0,0-1.4,138.9,0,138.9c-1.1,0-8.4,0-8.4,0v10.9
				l-0.6-0.9v-2.4l-1.8-0.3l-5.1-7.9l-4,6.2l-2.2-0.4c0,0,1.9-1.6-3.1-15.7c-2.2-6.2-6.4-10.8-11.6-14.1v-34.7h-21.9v-34.6h-84.5
				h-18.4v-73.9h-26.7V345h-15.6V238.7h-3V345h-8.9v-37.4h-5.9V345h-14.1v91.8H79.9v36h-0.1v37.9H62.6V583h-3.7v-14.5h-4.2l0.9-10.9
				l-7.6-5.1v-6.3l-11.6-17.9H12.2l-11,17v8h-8v28.9h-9.8l-0.7,112.3l-0.8,20.8V740h-5.5v8.3h-4l-4.4-6.9h-8.4v-26.8h-5.1v-19.5
				h-4.7v-13.8h-6.3v-64.7l-8.2-12.7l-7.5,11.6v-10.9c0,0-7.3,0-8.4,0c1.4,0,0-138.9,0-138.9h-33.2v204h-5.1v6.5h-7v-10.9h-12.6V680
				h-6.6l-6.1-55l-6.1,55h-8l0.9-11.6h-5.6v-97h-5.2v-26.8h-4.2V536l-9.8-2.2c0,0,1.4-1.4-2.3-13.7c-3.7-12.3-15-17.4-25.8-18.1
				c-10.8-0.7-19.2,22.4-19.2,22.4v10.9h-11.7v18.1h-10.3v35.5h-15.9v59.3h-9.8V532.4h-6.1v-29.7h-5.6v-8l-30.9-28.9l-30.4,26.8
				v10.8h-4.1v29.1h-7.2v91.4h-5.3v-25.4h-3.6v-9.3h-5.1v-8.6h-4.3v-7.5h-47.8v6.7h-4.3v7.8h-3.9v10.4h-5.6l-1,28.1V669h-12.6v39.2
				h-12.6v-39.1h-46.4v41.2h-30.9v130.2h397.3V960h1835.3V811.3h-41.2v-6.8H1700.1z"/>
		</g>
	</g>
	<rect x="1764" y="733.5" clip-path="url(#SVGID_2_)" fill="#ACCDFF" width="64" height="174.5"/>
	<g clip-path="url(#SVGID_2_)">
		<g>
			<path fill="#ACCDFF" d="M1968.1,510.3v275.9h-43.8l-24.2-202.9h-72.7l-0.2,24.3h-20V437.2H1702v305.5h-17.4v-15.2l-25.3-25.4V644
				h-18.8v-33.4l-23.1-23.2l-26,26.1v16h-14.5v55.2h-8.7v-59.5h-15.9v-8h13.7l-15.2-15.2h-43.4l13,13.1v7.3h-11.6l-5.1-5.1
				l-10.9-10.9v-16l-11.6-11.6V324.5l-38.4-6.6v-41.2h-5.3v40.1l-38-12.3v-0.1h-0.4l-0.4-0.1v0.1h-18.1v296.1h-5.1v20.3h-8.7v24.7
				h-18.8l2.9-18.9l-5.8-10.2l-1.4-24.7l-10.1-1.4l1.4-16l-4.3-4.4v-13.1l-7.2-1.4l-2.9,11.6l-24.6,1.4l-1.4-17.4l-50.6,1.5
				l-3.6-4.1l-36,1.7v50.6h-57.7V450.1h-17.6v-23.9h-51.7v14.7l-1.1-1v-56h-12.3v45.1l-20.5-18.1V289.3h-12.3v-51.9h-24.6v51.9
				h-20.5v140.5h-11.8v420.2h-10.2v43.3h-9.8V744.9l-25.4-103.2h-24.4l-27.3,82.9v65.4h-22.4v-56.2h-14.6v42.4h-19.5v13.9h-15.6V592
				h-3.2v-25.4l4.1-7.8h-4.1v-22.2h-20.5v-42.7h-94.2v42.7h-20.5v113h-25.7V494.3h-10.7v-57.1h-7.3v-13.8h-13.2v-85.7h-4.4v85.7
				h-17.6v13.8H578v53.4h-10.2v197.1h-14.2v126.7h-30.2V689.6h-43.9l-9.3,17.5v72.8h-42.4v-38.7h-38.1v35l-5.6,10.6L360,594.6
				l-22.8,198.2v-125h-141v-61.1h-24.6V561h-16.4v45.8h-28.7v45.8h-22.1V555H81.6v-76.4H69.3V555H58.7v67H30.9v143.6H1.1v-62.2
				h-31.8v119.7h-25.8v-57.4H-96v402.1h233.3l0,2l1457.7,8.3l-3.1-216.2h74.9v-12.2h84.9v-9.3h23.1v-69h32.3V761.9h18.7l-1.7,198.8
				l76-5.1v9.2h68v12.2h72V510.3H1968.1z M1461.9,395.1l-37.7-5.2v-58.6l39.5,6.9L1461.9,395.1z"/>
		</g>
	</g>
	<g clip-path="url(#SVGID_2_)">
		<g>
			<path fill="#82A5D8" d="M2023.3,910.1v-30.6h-69.3v-96.9h-31.2v-30.6h-46.8v28.9h-22.5V871h-38.1v-20.4h-3.5v-64.1h-49.9V601.9
				h-8.8v-17.3h-11.8v-17.3h-17.6v17.3h-11.7v17.3h-11.8v141.3H1671v115.2l-3.6-3.5l-14.7,14.5v13.6h-17.3V859h-32.1v-56.7h-18.7
				v-24h-39.2v24h-29.4v36.1h-34.7v-27h-55.8l0.2,27h-86.8v-31.8h-88V665.3h-17.6v-14.4h-23.5v-37.5h-14.7v37.5h-17.6v14.4h-20.6
				v192H1145v-2.5h-4.4v-3.5l-24.5-15.3l-25.5,14.8v4h-4.1v17.5h-4v48.6h-4.6v-15.7h-3.6v-5.1h-2.6v-4.1h-4.6v-5.6h-16.5v-27.8h-0.5
				v-52.3h-53.9v-20h-19.6v20h-34.3v66.2h-36.9v-96.9h-31.2V749h-46.8v28.9h-22.5v90.1h-38.1v-20.4h-39.8V880H706v-83.3h-20.8v-49.3
				h-6.8v49.3h-26.1v86.7l-20.8-1.7v-17l-13-12.8l-14.7,14.5V880h-17.3v-23.8h-7.8v-58.8h-24.2v-21.2h-10.8v19.8h-21.2v-43.9h-30.8
				v40.4h-31.2v-97h-28.1v-78.6h-55.8l0.4,84.7h-14.8l0.5,24.4h-18.1l-8.1,14.8v9.6h-3.9v12.5h-2v12.5l-9.1,0.3l-0.4,157.5h-5v7.2
				h-5.9l-2-6.9l-9.5,0.3v-25.7h-1.1v-3.6h-1.6v-16.8h-2.7v-11.9h-3.4v-50.1h-1.4l-0.2-8.6l-6.6-10.2l-0.4-4.3l-2-0.3l-0.2,4.6
				l-5.4,7.9v-12.8h-5.7v-35.3h-1.8v-9.2h-1.3v-4.3h-3.9l-2.3-1.3l-5-39.9l-4.1,41.5h-1.4l-0.4,6.3l-1.3-2.3l-2.7,0.3v42.2h-2.9V862
				h-2.5v5.9h-2.3v4.9h-2v-2.6h-3.6V865h-7.2l0.2,12.8l-2.9-0.3v-4.3l-3-0.7l-5-15.1l-0.2-4l-0.9-0.3l-0.2-6.3l-1.4-0.3v6.6
				l-1.1,0.3v3l-4.1,16.5h-4.8l-0.2-9.5h-5.2l-0.2-96.5l-3.2-0.7v-24.4l-2.1-0.6v-8.6l-8.8-2.3l0.4-8.9l-4.6-8.5l-4.5-90.8
				l-53.1,0.5l0.7,80.2h-23v-4.7h-4.4v-6.5l-24.5-28.6l-25.5,27.6v7.5h-4.1V731h-4v91h-4.6v-29.4h-3.6v-9.5h-2.6v-7.6h-4.6v-10.4
				H1.8V713h-6.2v-38.9c0,0-15-4.7-32-5.7c-17-0.9-41.3,5.7-41.3,5.7v179.2h-2.6v-8.5h-30.9v7.6h-2.1l-0.5,18l-3.6,1.9l-1.1,2.7
				v152.9h10.3v44.7h2184v-41l1.2-9.4V910.1H2023.3z"/>
		</g>
	</g>
	<g clip-path="url(#SVGID_2_)">
		<g>
			<path fill="#648CBC" d="M2044,1006.9l-3.6-1.1l-0.5-10.3h-2.1v-4.3h-30.9v4.9h-2.6V893.6c0,0-24.2-3.8-41.3-3.2
				c-17,0.5-32,3.2-32,3.2v22.2h-6.2v29.8h-16.5v6h-4.6v4.3h-2.6v5.4h-3.6v16.8h-4.6v-52h-4.1v-18.8h-4.1v-4.3l-25.5-15.8
				l-24.5,16.3v3.7h-4.4v2.7h-23l-8.1-145.8l-42.6,1.1l-6.3,150.4l-4.6,4.8l0.4,5.1l-8.8,1.3v4.9l-2.1,0.4v13.9l-3.2,0.4l-0.2,55.2
				h-5.2l-0.2,5.5h-4.8l-4.1-9.4v-1.7l-1.1-0.2v-3.8l-1.4,0.2l-0.2,3.6l-0.9,0.2l-0.2,2.3l-5,8.7l-3,0.4v2.4l-2.9,0.2l0.2-7.3h-7.2
				v3h-3.6v1.5h-2v-2.8h-2.3v-3.4h-2.5v-35.4h-2.9v-24.1l-2.7-0.2l-1.3,1.3l-0.4-3.6h-1.4l-4.1-23.7l-5,22.8l-2.3,0.8h-3.9v2.4h-1.3
				v5.3h-1.8v20.1h-5.7v7.3l-5.4-4.5l-0.2-2.6l-2,0.2l-0.4,2.4l-6.6,5.8l-0.2,4.9h-1.4v28.6h-3.4v6.8h-2.7v9.6h-1.6v2.1h-1.1v14.7
				l-9.5-0.2l-2,3.9h-5.9v-4.1h-5l-0.4-90l-9.1-0.2v-7.1h-2v-7.2h-3.9v-5.5l-8.1-8.5h-18.1l0.5-13.9h-14.8l0.4-48.4h-55.8v44.9H1466
				v55.4h-31.2v-23H1404v25.1h-21.2v-11.3h-10.8V964h-24.2v33.6h-7.8v13.6h-17.3v-7.8l-14.7-8.3l-13,7.3v9.7l-20.8,1v-49.6h-26.1
				v-28.2h-6.8v28.2h-20.8v47.6h-20.8v-18.5h-39.8v11.7h-38.1v-51.5h-22.5v-16.5h-46.8v17.5h-31.2v55.4h-36.9v-37.8h-34.3V960h-19.6
				v11.4h-54v29.9H876v15.9h-16.5v3.2h-4.6v2.3h-2.6v2.9h-3.6v9H844v-27.8h-4v-10h-4.1v-2.3l-25.5-8.4l-24.5,8.7v2h-4.4v1.4h-11.8
				V888.6h-20.6v-8.2h-17.6v-21.4h-14.7v21.4h-23.5v8.2h-17.6v80.8h-88v18.1h-86.8l0.2-15.4h-55.8v15.4h-34.7v-20.6h-29.4v-13.7H342
				v13.7h-18.7v32.4h-32.1v13.6h-17.3v-7.8l-14.7-8.3l-3.6,2v-65.8h-29.4v-80.7h-11.8v-9.9h-11.7v-9.9h-17.6v9.9h-11.8v9.9h-8.8
				v105.5h-49.9v36.6h-3.5v11.7H73v-51.5H50.5v-16.5H3.7v17.5h-31.2v55.4h-69.3v17.5h-53.7v64.1l1.2,5.4v23.4h2184v-25.6h10.3v-87.4
				L2044,1006.9z"/>
		</g>
	</g>
	<rect x="699.7" y="855.2" clip-path="url(#SVGID_2_)" fill="#648CBC" width="96" height="172.5"/>
	<rect x="783.7" y="956.6" clip-path="url(#SVGID_2_)" fill="#648CBC" width="74.1" height="96.7"/>
	<rect x="811.7" y="920.1" clip-path="url(#SVGID_2_)" fill="#648CBC" width="86.6" height="129"/>
	<rect x="847.7" y="908" clip-path="url(#SVGID_2_)" fill="#648CBC" width="16" height="20.3"/>
	<rect x="911.8" y="960.7" clip-path="url(#SVGID_2_)" fill="#648CBC" width="40.3" height="48.6"/>
	<rect x="975.8" y="863.3" clip-path="url(#SVGID_2_)" fill="#648CBC" width="32" height="182.6"/>
	<rect x="1022.8" y="733.5" clip-path="url(#SVGID_2_)" fill="#648CBC" width="80.2" height="284.1"/>
	<rect x="1039.9" y="703.1" clip-path="url(#SVGID_2_)" fill="#648CBC" width="27.9" height="46.6"/>
	<rect x="1291.9" y="964.8" clip-path="url(#SVGID_2_)" fill="#648CBC" width="56" height="64.9"/>
</g>
<radialGradient id="circle_1_" cx="1.0377" cy="1081.863" r="1.1199" gradientTransform="matrix(3.100000e-014 511 511 -3.100000e-014 -551879 1)" gradientUnits="userSpaceOnUse">
	<stop  offset="0" style="stop-color:#FFFFFF"/>
	<stop  offset="1" style="stop-color:#FFFFFF;stop-opacity:0"/>
</radialGradient>
<circle id="circle" fill="url(#circle_1_)" cx="953" cy="531.2" r="572.2"/>
</svg>
