<svg width="238" height="48" viewBox="0 0 238 48" fill="none" xmlns="http://www.w3.org/2000/svg">
<path d="M44.9382 6.71531C44.7703 4.01033 46.6382 1.21676 49.0989 0.46103C51.5596 -0.294696 53.716 1.4565 53.9102 4.3439C54.1043 7.23129 52.2417 10.0197 49.7495 10.5982C47.2573 11.1767 45.1009 9.42029 44.9382 6.71531Z" fill="url(#paint0_linear)"/>
<path d="M88.25 25.9524H84.189V32.6602C84.189 33.0771 84.1995 33.4889 84.2205 33.8954C84.2347 34.2711 84.3146 34.6414 84.4566 34.9899C84.5867 35.305 84.8053 35.5764 85.0862 35.7717C85.4609 35.9933 85.8945 36.0969 86.3297 36.0687C86.6816 36.0682 87.0327 36.0368 87.379 35.9749C87.7219 35.9173 88.0521 35.8009 88.3549 35.6309V38.1952C87.9478 38.4054 87.5047 38.538 87.0485 38.5861C86.6368 38.6488 86.2214 38.6853 85.805 38.6955C84.9365 38.7385 84.0697 38.5834 83.2708 38.2421C82.725 37.9868 82.2656 37.5794 81.9486 37.0694C81.6539 36.5787 81.4745 36.0282 81.424 35.459C81.3715 34.8648 81.3453 34.2654 81.3453 33.6608V25.9524H78.0923V23.5133H81.3663V19.3438H84.1995V23.5133H88.2605L88.25 25.9524Z" fill="#37474F"/>
<path d="M91.4929 30.9278C91.4845 29.8855 91.6935 28.8527 92.1068 27.8945C92.5052 26.9723 93.0768 26.1338 93.791 25.4241C95.2916 23.9511 97.3163 23.125 99.426 23.125C101.536 23.125 103.56 23.9511 105.061 25.4241C105.775 26.1338 106.347 26.9723 106.745 27.8945C107.159 28.8527 107.368 29.8855 107.359 30.9278C107.365 31.9534 107.165 32.9699 106.77 33.9176C106.375 34.8654 105.794 35.7254 105.061 36.4472C104.335 37.1538 103.481 37.7163 102.543 38.1046C100.546 38.9179 98.3065 38.9179 96.3094 38.1046C95.3715 37.7163 94.5168 37.1538 93.791 36.4472C93.0576 35.7254 92.4765 34.8654 92.0819 33.9176C91.6873 32.9699 91.4871 31.9534 91.4929 30.9278ZM94.5151 30.9278C94.5073 31.6375 94.6245 32.343 94.8613 33.0126C95.072 33.6149 95.4041 34.1682 95.8372 34.6387C96.2728 35.089 96.7982 35.444 97.3798 35.6811C98.6934 36.2026 100.159 36.2026 101.472 35.6811C102.054 35.444 102.579 35.089 103.015 34.6387C103.448 34.1682 103.78 33.6149 103.991 33.0126C104.455 31.661 104.455 30.1947 103.991 28.8431C103.78 28.2408 103.448 27.6875 103.015 27.217C102.579 26.7667 102.054 26.4116 101.472 26.1746C100.158 25.6537 98.6935 25.6537 97.3798 26.1746C96.7982 26.4116 96.2728 26.7667 95.8372 27.217C95.411 27.6909 95.0861 28.2459 94.8823 28.8483C94.6389 29.5149 94.5146 30.2187 94.5151 30.9278Z" fill="#37474F"/>
<path d="M111.231 23.5156H114.065V25.6421H114.128C114.698 24.8332 115.482 24.1965 116.394 23.8023C117.315 23.372 118.32 23.1478 119.338 23.1456C120.417 23.128 121.488 23.3302 122.486 23.7397C123.393 24.1171 124.208 24.6821 124.878 25.3971C125.531 26.1201 126.035 26.9628 126.363 27.878C126.721 28.8547 126.899 29.8876 126.888 30.927C126.901 31.9767 126.723 33.0201 126.363 34.0072C126.025 34.9238 125.506 35.7639 124.836 36.4776C124.163 37.1846 123.348 37.7439 122.444 38.1194C121.446 38.5289 120.375 38.7311 119.296 38.7135C118.25 38.7191 117.217 38.4892 116.273 38.0412C115.391 37.6458 114.638 37.0118 114.101 36.2118H114.038V47.1568H111.205L111.231 23.5156ZM118.976 25.7672C118.274 25.7568 117.577 25.8898 116.929 26.1581C116.348 26.3951 115.822 26.7502 115.387 27.2004C114.954 27.671 114.622 28.2243 114.411 28.8266C113.947 30.1782 113.947 31.6445 114.411 32.9961C114.622 33.5984 114.954 34.1517 115.387 34.6222C115.822 35.0725 116.348 35.4275 116.929 35.6646C118.243 36.1855 119.708 36.1855 121.022 35.6646C121.603 35.4275 122.129 35.0725 122.564 34.6222C122.997 34.1517 123.33 33.5984 123.54 32.9961C124.004 31.6445 124.004 30.1782 123.54 28.8266C123.33 28.2243 122.997 27.671 122.564 27.2004C122.129 26.7502 121.603 26.3951 121.022 26.1581C120.374 25.8898 119.677 25.7568 118.976 25.7672Z" fill="#37474F"/>
<path d="M130.34 18.1994C130.33 17.7154 130.491 17.2433 130.793 16.8639C131.096 16.4846 131.522 16.2217 131.999 16.1204C132.475 16.0191 132.973 16.0857 133.405 16.3087C133.838 16.5318 134.178 16.8974 134.369 17.3428C134.56 17.7883 134.589 18.2858 134.451 18.75C134.313 19.2142 134.016 19.6162 133.612 19.887C133.208 20.1578 132.722 20.2805 132.237 20.2341C131.752 20.1877 131.298 19.9751 130.954 19.6327C130.759 19.4472 130.605 19.2247 130.499 18.9784C130.394 18.732 130.34 18.4671 130.34 18.1994ZM131.001 23.5156H133.834V38.3382H131.001V23.5156Z" fill="#37474F"/>
<path d="M149.323 27.4478C148.849 26.9434 148.289 26.5253 147.67 26.2126C147.024 25.9171 146.319 25.7726 145.608 25.7904C144.907 25.7743 144.213 25.9187 143.577 26.2126C143.013 26.4841 142.517 26.8798 142.129 27.3696C141.734 27.874 141.435 28.4464 141.248 29.0583C141.047 29.7013 140.947 30.3709 140.949 31.044C140.945 31.7109 141.062 32.3729 141.295 32.9985C141.513 33.5926 141.845 34.1393 142.271 34.6089C142.693 35.0694 143.208 35.4369 143.782 35.6878C144.408 35.956 145.084 36.0893 145.765 36.0787C146.471 36.0982 147.172 35.9537 147.812 35.6565C148.411 35.3492 148.946 34.9298 149.386 34.4213L151.4 36.4227C150.705 37.2091 149.823 37.8109 148.835 38.1739C147.84 38.5278 146.79 38.7043 145.734 38.6951C144.658 38.7063 143.59 38.5153 142.586 38.1322C141.664 37.782 140.824 37.2502 140.115 36.5686C139.413 35.8769 138.865 35.0457 138.509 34.1295C138.123 33.1319 137.931 32.0709 137.942 31.0023C137.93 29.9235 138.122 28.852 138.509 27.8439C138.859 26.9225 139.394 26.0818 140.083 25.3735C140.781 24.6736 141.617 24.1252 142.539 23.763C143.556 23.3654 144.641 23.1688 145.734 23.1845C146.811 23.1789 147.879 23.3751 148.882 23.763C149.873 24.1449 150.762 24.7497 151.479 25.5298L149.323 27.4478Z" fill="#37474F"/>
<path d="M153.415 30.9278C153.406 29.8855 153.615 28.8527 154.029 27.8945C154.427 26.9723 154.999 26.1338 155.713 25.4241C157.214 23.9511 159.238 23.125 161.348 23.125C163.458 23.125 165.482 23.9511 166.983 25.4241C167.697 26.1338 168.269 26.9723 168.667 27.8945C169.08 28.8527 169.289 29.8855 169.281 30.9278C169.287 31.9534 169.087 32.9699 168.692 33.9176C168.297 34.8654 167.716 35.7254 166.983 36.4472C166.257 37.1538 165.402 37.7163 164.464 38.1046C162.467 38.9179 160.228 38.9179 158.231 38.1046C157.293 37.7163 156.439 37.1538 155.713 36.4472C154.979 35.7254 154.398 34.8654 154.004 33.9176C153.609 32.9699 153.409 31.9534 153.415 30.9278ZM156.437 30.9278C156.429 31.6375 156.546 32.343 156.783 33.0126C156.994 33.6149 157.326 34.1682 157.759 34.6387C158.195 35.089 158.72 35.444 159.302 35.6811C160.615 36.2026 162.08 36.2026 163.394 35.6811C163.976 35.444 164.501 35.089 164.937 34.6387C165.37 34.1682 165.702 33.6149 165.913 33.0126C166.377 31.661 166.377 30.1947 165.913 28.8431C165.702 28.2408 165.37 27.6875 164.937 27.217C164.501 26.7667 163.976 26.4116 163.394 26.1746C162.08 25.6531 160.615 25.6531 159.302 26.1746C158.72 26.4116 158.195 26.7667 157.759 27.217C157.329 27.6899 157.001 28.245 156.794 28.8483C156.554 29.5156 156.433 30.2193 156.437 30.9278Z" fill="#90A4AE"/>
<path d="M173.153 23.5156H175.987V25.6421H176.05C176.617 24.8347 177.398 24.1981 178.306 23.8023C179.227 23.372 180.231 23.1478 181.249 23.1456C182.328 23.128 183.4 23.3302 184.397 23.7397C185.303 24.1185 186.119 24.6833 186.79 25.3971C187.443 26.1201 187.947 26.9628 188.275 27.878C188.633 28.8547 188.81 29.8876 188.799 30.927C188.812 31.9767 188.634 33.0201 188.275 34.0072C187.937 34.9238 187.418 35.7639 186.748 36.4776C186.073 37.1835 185.259 37.7425 184.355 38.1194C183.358 38.5289 182.286 38.7311 181.207 38.7135C180.162 38.7191 179.128 38.4892 178.185 38.0412C177.303 37.6458 176.55 37.0118 176.013 36.2118H175.95V47.1568H173.117L173.153 23.5156ZM180.898 25.7672C180.196 25.7568 179.499 25.8898 178.851 26.1581C178.27 26.3951 177.744 26.7502 177.309 27.2004C176.876 27.671 176.544 28.2243 176.333 28.8266C175.869 30.1782 175.869 31.6445 176.333 32.9961C176.544 33.5984 176.876 34.1517 177.309 34.6222C177.744 35.0725 178.27 35.4275 178.851 35.6646C180.165 36.186 181.63 36.186 182.944 35.6646C183.525 35.4275 184.051 35.0725 184.486 34.6222C184.92 34.1517 185.252 33.5984 185.462 32.9961C185.926 31.6445 185.926 30.1782 185.462 28.8266C185.252 28.2243 184.92 27.671 184.486 27.2004C184.051 26.7502 183.525 26.3951 182.944 26.1581C182.296 25.8903 181.599 25.7572 180.898 25.7672Z" fill="#90A4AE"/>
<path d="M191.978 30.9278C191.97 29.8855 192.179 28.8527 192.592 27.8945C192.991 26.9723 193.562 26.1338 194.276 25.4241C195.777 23.9511 197.802 23.125 199.911 23.125C202.021 23.125 204.046 23.9511 205.546 25.4241C206.259 26.1352 206.83 26.9733 207.231 27.8945C207.644 28.8527 207.853 29.8855 207.844 30.9278C207.852 31.9752 207.643 33.0129 207.231 33.9768C206.835 34.9008 206.263 35.7398 205.546 36.4472C204.821 37.1538 203.966 37.7163 203.028 38.1046C201.031 38.9179 198.792 38.9179 196.795 38.1046C195.857 37.7163 195.002 37.1538 194.276 36.4472C193.543 35.7254 192.962 34.8654 192.567 33.9176C192.173 32.9699 191.972 31.9534 191.978 30.9278ZM195 30.9278C194.993 31.6375 195.11 32.343 195.347 33.0126C195.557 33.6149 195.889 34.1682 196.323 34.6387C196.758 35.089 197.284 35.444 197.865 35.6811C199.179 36.2026 200.644 36.2026 201.958 35.6811C202.539 35.444 203.065 35.089 203.5 34.6387C203.932 34.1669 204.263 33.614 204.476 33.0126C204.94 31.661 204.94 30.1947 204.476 28.8431C204.26 28.2427 203.924 27.6915 203.49 27.2222C203.054 26.7719 202.529 26.4169 201.947 26.1798C200.633 25.6589 199.168 25.6589 197.855 26.1798C197.273 26.4169 196.748 26.7719 196.312 27.2222C195.879 27.6927 195.547 28.246 195.336 28.8483C195.103 29.5168 194.99 30.2205 195 30.9278Z" fill="#90A4AE"/>
<path d="M211.932 14.6953H214.771V38.3365H211.932V14.6953Z" fill="#90A4AE"/>
<path d="M219.146 18.198C219.138 17.7139 219.3 17.242 219.604 16.8634C219.907 16.4848 220.334 16.2231 220.811 16.1231C221.288 16.0231 221.785 16.0911 222.217 16.3155C222.649 16.5398 222.989 16.9065 223.178 17.3526C223.368 17.7987 223.395 18.2964 223.255 18.7603C223.116 19.2242 222.818 19.6253 222.413 19.8948C222.008 20.1643 221.521 20.2854 221.036 20.2373C220.551 20.1893 220.098 19.975 219.755 19.6313C219.562 19.4448 219.409 19.2219 219.305 18.9758C219.2 18.7296 219.146 18.4652 219.146 18.198ZM219.802 23.5141H222.641V38.3368H219.802V23.5141Z" fill="#90A4AE"/>
<path d="M235.385 27.2372C235.04 26.8151 234.618 26.4614 234.141 26.1948C233.586 25.8984 232.961 25.7527 232.331 25.7727C231.721 25.7574 231.118 25.9031 230.584 26.1948C230.352 26.3116 230.159 26.4922 230.028 26.7149C229.897 26.9376 229.833 27.1931 229.844 27.4509C229.839 27.6443 229.874 27.8368 229.947 28.0161C230.02 28.1955 230.13 28.3579 230.269 28.4933C230.57 28.7698 230.918 28.9905 231.297 29.1448C231.699 29.3149 232.117 29.4408 232.546 29.52L233.679 29.7389C234.261 29.8736 234.832 30.0478 235.39 30.2601C235.889 30.4605 236.351 30.7443 236.754 31.0992C237.144 31.4351 237.455 31.8512 237.667 32.3188C237.902 32.8724 238.015 33.4695 237.998 34.07C238.022 34.8182 237.841 35.5589 237.473 36.2121C237.127 36.7944 236.654 37.2915 236.088 37.6662C235.497 38.0516 234.841 38.3271 234.152 38.4793C233.434 38.6453 232.7 38.7293 231.964 38.7295C230.84 38.7509 229.722 38.5544 228.674 38.1509C227.658 37.7056 226.79 36.9826 226.171 36.0662L228.312 34.315C228.779 34.7775 229.296 35.1866 229.855 35.5346C230.489 35.9053 231.218 36.0863 231.953 36.0558C232.32 36.0547 232.685 36.0181 233.045 35.9463C233.384 35.8817 233.711 35.7657 234.015 35.6023C234.287 35.4563 234.523 35.2536 234.708 35.0082C234.875 34.7809 234.967 34.5077 234.97 34.2264C234.978 34.0353 234.947 33.8446 234.88 33.6655C234.812 33.4865 234.709 33.3227 234.577 33.184C234.309 32.9091 233.987 32.691 233.632 32.5429C233.258 32.3845 232.87 32.2589 232.473 32.1677L231.381 31.9331C230.773 31.7872 230.196 31.6135 229.65 31.412C229.131 31.2384 228.642 30.9852 228.202 30.6614C227.78 30.3462 227.435 29.9398 227.194 29.4731C226.926 28.9178 226.796 28.3064 226.817 27.6907C226.8 26.9876 226.968 26.2923 227.305 25.6736C227.622 25.1092 228.063 24.6229 228.595 24.2508C229.15 23.8664 229.768 23.5807 230.421 23.4065C231.093 23.2203 231.786 23.1256 232.483 23.125C233.476 23.1223 234.46 23.3135 235.379 23.6879C236.3 24.0612 237.074 24.7191 237.588 25.5642L235.385 27.2372Z" fill="#90A4AE"/>
<path d="M19.5706 13.4875C19.6441 15.6921 17.6818 17.928 15.1896 18.4909C12.6974 19.0538 10.6354 17.8655 10.5934 15.8433C10.5515 13.821 12.5085 11.5851 14.9745 10.845C17.4404 10.1049 19.4919 11.2933 19.5706 13.4875Z" fill="url(#paint1_linear)"/>
<path d="M68.1238 29.1114L61.4604 29.5336C61.9851 36.627 58.454 42.3757 52.373 42.3548C44.8072 42.3236 40.4892 37.3514 35.935 31.6183C35.5677 31.1771 35.2004 30.7288 34.8332 30.2737L34.3085 29.617L34.1773 29.4606C33.6526 28.8508 33.1595 28.241 32.6033 27.6416C28.0806 22.6643 22.6869 18.4739 13.6888 20.3189C5.07361 22.0805 0 28.0951 0 34.2243L4.52794 33.9324C4.48597 29.5336 7.89636 25.4526 13.7989 24.4832C21.1549 23.2793 25.2526 27.0527 29.6966 32.1395C30.0586 32.5617 30.4206 32.9943 30.7879 33.4373C31.512 34.3077 32.2518 35.2093 33.0178 36.1162C37.6716 41.7659 43.3539 47.5824 52.7403 47.9889C61.7332 48.3329 68.9633 39.874 68.1238 29.1114Z" fill="url(#paint2_linear)"/>
<path d="M44.3561 6.43016C44.1934 3.72518 46.0613 0.931599 48.522 0.175874C50.9827 -0.579852 53.1391 1.17135 53.3332 4.05874C53.5274 6.94614 51.6648 9.7345 49.1726 10.313C46.6804 10.8915 44.5135 9.13513 44.3561 6.43016Z" fill="url(#paint3_linear)"/>
<path d="M34.833 30.3972L35.9296 31.7366L34.833 30.3972C39.3085 36.8651 45.4 46.3195 54.8494 46.6062C62.2473 46.8303 68.3178 39.3095 68.0974 29.2349H68.1236C67.3051 18.4723 58.9838 11.7281 50.4316 12.9165C41.3652 14.1725 36.5907 21.4275 32.6084 27.7652C33.3692 28.6303 34.109 29.5372 34.833 30.3972ZM50.8094 18.5297C57.1055 18.3108 61.0825 23.6061 61.4498 29.6467C61.88 36.7557 57.6931 42.4679 52.3624 42.4679C44.7966 42.4679 40.4785 37.4697 35.9243 31.7418C39.8174 25.3677 43.3695 18.7903 50.8094 18.5297Z" fill="url(#paint4_linear)"/>
<path d="M30.7879 33.4161C30.4206 32.9731 30.0586 32.5457 29.6966 32.1184C30.0586 32.5457 30.4206 32.9731 30.7879 33.4161C26.4069 27.4954 20.6827 20.1206 11.5953 21.877C4.48072 23.279 0.571896 28.4179 0.0419739 34.224H0C0 40.3532 5.37267 46.5918 14.3708 46.6127C23.0437 46.6127 28.9148 41.7656 33.0178 36.1003C32.2518 35.1882 31.512 34.2865 30.7879 33.4161ZM14.6384 41.5832C9.70124 41.5832 4.80602 38.9512 4.81651 33.9269C4.81651 29.0486 7.89636 25.4523 13.7989 24.4829C21.1549 23.279 25.2526 27.0524 29.6966 32.1392C25.6933 37.8723 21.5431 41.5832 14.6384 41.5832Z" fill="url(#paint5_linear)"/>
<path d="M19.1245 13.0505C19.2032 15.2499 17.2409 17.491 14.7434 18.0487C12.246 18.6064 10.1945 17.4285 10.1525 15.4063C10.1105 13.384 12.0676 11.1481 14.5336 10.408C16.9995 9.66796 19.051 10.8511 19.1245 13.0505Z" fill="url(#paint6_linear)"/>
<defs>
<linearGradient id="paint0_linear" x1="49.4242" y1="10.3793" x2="49.4242" y2="0.294249" gradientUnits="userSpaceOnUse">
<stop stop-color="#37474F"/>
<stop offset="1" stop-color="#263238"/>
</linearGradient>
<linearGradient id="paint1_linear" x1="467.667" y1="268.327" x2="467.667" y2="387.612" gradientUnits="userSpaceOnUse">
<stop stop-color="#37474F"/>
<stop offset="1" stop-color="#263238"/>
</linearGradient>
<linearGradient id="paint2_linear" x1="34.1039" y1="-13.866" x2="34.1039" y2="84.9569" gradientUnits="userSpaceOnUse">
<stop stop-color="#90A4AE"/>
<stop offset="1" stop-color="#B0BEC5"/>
</linearGradient>
<linearGradient id="paint3_linear" x1="5391.84" y1="6027.06" x2="5391.84" y2="5825.37" gradientUnits="userSpaceOnUse">
<stop stop-color="#90A4AE"/>
<stop offset="1" stop-color="#B0BEC5"/>
</linearGradient>
<linearGradient id="paint4_linear" x1="-23895.1" y1="-21835.9" x2="-21489.6" y2="-21835.9" gradientUnits="userSpaceOnUse">
<stop stop-color="#37474F"/>
<stop offset="1" stop-color="#263238"/>
</linearGradient>
<linearGradient id="paint5_linear" x1="731.674" y1="1941.07" x2="2809.48" y2="1941.07" gradientUnits="userSpaceOnUse">
<stop stop-color="#37474F"/>
<stop offset="1" stop-color="#263238"/>
</linearGradient>
<linearGradient id="paint6_linear" x1="459.435" y1="260.973" x2="459.435" y2="380.086" gradientUnits="userSpaceOnUse">
<stop stop-color="#90A4AE"/>
<stop offset="1" stop-color="#B0BEC5"/>
</linearGradient>
</defs>
</svg>
